<?xml version="1.0" encoding="utf-8"?>
<!-- Generator: Adobe Illustrator 24.1.2, SVG Export Plug-In . SVG Version: 6.00 Build 0)  -->
<svg version="1.1" id="Layer_1" xmlns="http://www.w3.org/2000/svg" xmlns:xlink="http://www.w3.org/1999/xlink" x="0px" y="0px"
	 width="225px" height="200px" viewBox="0 0 225 200" style="enable-background:new 0 0 225 200;" xml:space="preserve">
<style type="text/css">
	.st0{opacity:0.15;}
	.st1{fill:#6A47AF;}
	.st2{fill:#F987D6;}
</style>
<g class="st0">
	<path class="st1" d="M155.5,200L155.5,200c-5,0-9.6-2.8-11.9-7.2l-41.4-79.9c-1.4-2.8-3.1-5.8-5.3-9.4c-2.3-3.8-4.2-7.8-5.7-11.9
		c-2.7-7.5-4.1-15.3-4.1-23.3c0-18.3,7.2-35.5,20.2-48.5C120.2,7,137.3,0,155.4,0c0.2,0,0.4,0,0.6,0c37.5,0.3,67.8,31,67.7,68.6l0,0
		c-0.1,7.9-1.4,15.6-4.1,23c-1.4,4-3.3,7.9-5.7,11.9c-2.2,3.6-3.8,6.5-5.3,9.4l-41.4,79.9C165.1,197.2,160.5,200,155.5,200z
		 M155.5,3.7c-17.2,0-33.4,6.6-45.6,18.8s-19,28.5-19,45.9c0,7.5,1.3,14.9,3.8,22c1.4,3.8,3.2,7.6,5.4,11.2c2.2,3.6,3.9,6.7,5.4,9.6
		l41.4,79.9c1.7,3.3,4.9,5.3,8.6,5.3c3.7,0,6.9-2,8.6-5.3l41.4-79.9c1.5-2.9,3.2-6,5.4-9.6c2.3-3.8,4-7.4,5.4-11.2
		c2.5-7,3.8-14.3,3.8-21.8c0.2-35.6-28.6-64.7-64-64.9C155.9,3.7,155.7,3.7,155.5,3.7z M222,68.7L222,68.7L222,68.7z"/>
	<circle id="Dot_6_" class="st2" cx="155.5" cy="72.8" r="31.6"/>
	<path class="st1" d="M155.5,106.2c-18.4,0-33.4-15-33.4-33.4s15-33.4,33.4-33.4s33.4,15,33.4,33.4S173.9,106.2,155.5,106.2z
		 M155.5,43c-16.4,0-29.8,13.4-29.8,29.8s13.4,29.8,29.8,29.8s29.8-13.4,29.8-29.8S171.9,43,155.5,43z"/>
	<path class="st1" d="M162.1,30.3c-0.3,0-0.5-0.1-0.7-0.4c-3.4-4.4-7.8-7.9-12.9-10c-0.5-0.2-0.7-0.7-0.5-1.2s0.7-0.7,1.2-0.5
		c5.3,2.3,10,6,13.6,10.6c0.3,0.4,0.2,1-0.2,1.3C162.5,30.3,162.3,30.3,162.1,30.3z"/>
	<path class="st1" d="M157.5,128.8c-0.2,0-0.3-0.1-0.5-0.2l-4-3c-0.3-0.3-0.4-0.7-0.1-1.1c0.3-0.3,0.7-0.4,1.1-0.1l4,3
		c0.3,0.3,0.4,0.7,0.1,1.1C158,128.7,157.7,128.8,157.5,128.8z"/>
	<path class="st1" d="M159.5,128.1c-0.2,0-0.3-0.1-0.5-0.2l-8-6.1c-0.3-0.3-0.4-0.7-0.1-1.1c0.3-0.3,0.7-0.4,1.1-0.1l8,6.1
		c0.3,0.3,0.4,0.7,0.1,1.1C159.9,128,159.7,128.1,159.5,128.1z"/>
	<path class="st1" d="M156.6,124.2c-0.2,0-0.3-0.1-0.5-0.2l-2.2-1.7c-0.3-0.3-0.4-0.7-0.1-1.1c0.3-0.3,0.7-0.4,1.1-0.1l2.2,1.7
		c0.3,0.3,0.4,0.7,0.1,1.1C157,124.1,156.8,124.2,156.6,124.2z"/>
</g>
</svg>
