<?xml version="1.0" encoding="utf-8"?>
<!-- Generator: Adobe Illustrator 24.1.2, SVG Export Plug-In . SVG Version: 6.00 Build 0)  -->
<svg version="1.1" id="Layer_1" xmlns="http://www.w3.org/2000/svg" xmlns:xlink="http://www.w3.org/1999/xlink" x="0px" y="0px"
	 width="225px" height="200px" viewBox="0 0 225 200" style="enable-background:new 0 0 225 200;" xml:space="preserve">
<style type="text/css">
	.st0{opacity:0.15;}
	.st1{fill:#F987D6;}
	.st2{fill:#6A47AF;}
</style>
<g class="st0">
	<path id="Shape_11_" class="st1" d="M179.3,182.5v9.1c0,3.6-2.9,6.5-6.5,6.5h-46.6c-3.6,0-6.5-2.9-6.5-6.5v-9.1H179.3z"/>
	<path class="st2" d="M172.8,200h-46.6c-4.6,0-8.3-3.7-8.3-8.3v-9.1c0-1,0.8-1.9,1.9-1.9h59.6c1,0,1.9,0.8,1.9,1.9v9.1
		C181.2,196.3,177.4,200,172.8,200z M121.6,184.4v7.3c0,2.5,2.1,4.6,4.6,4.6h46.7c2.5,0,4.6-2.1,4.6-4.6v-7.3H121.6z"/>
	<path class="st2" d="M128.8,191.1h-8.4c-0.4,0-0.8-0.4-0.8-0.8c0-0.4,0.4-0.8,0.8-0.8h8.4c0.4,0,0.8,0.4,0.8,0.8
		C129.6,190.8,129.2,191.1,128.8,191.1z"/>
	<path class="st2" d="M179.5,191.1H171c-0.4,0-0.8-0.4-0.8-0.8c0-0.4,0.4-0.8,0.8-0.8h8.5c0.4,0,0.8,0.4,0.8,0.8
		C180.3,190.8,179.9,191.1,179.5,191.1z"/>
	<path class="st2" d="M180.3,184.4c-0.3,0-0.7,0-1,0h-59.5c-7,0.5-10.9-3.9-12.4-7.2H76.7c-0.9,0-1.7-0.4-2.3-1.1
		c-0.6-0.7-0.8-1.6-0.6-2.4l2.1-13.8c0.9-5.7,3.3-11.1,7-15.5l21.3-25.4c1.6-1.9,2.5-4.4,2.5-6.8V77.4c0-14.8,3.9-29.3,11.3-41.9
		l15.3-26.2c3.4-5.8,9.5-9.3,16.2-9.3s12.8,3.5,16.2,9.3l15.2,26.1c7.4,12.7,11.3,27.2,11.3,41.9v34.8c0,2.6,0.9,4.9,2.5,6.8
		l21.4,25.4c3.7,4.4,6.1,9.7,7,15.5l2.1,13.8c0.1,0.8-0.1,1.7-0.7,2.4c-0.6,0.7-1.4,1.1-2.3,1.1h-30.6
		C190.2,180.3,186.6,184.4,180.3,184.4z M77.6,173.4h31c0.8,0,1.6,0.5,1.8,1.3c0.1,0.3,2.1,6.4,9.2,5.9h0.1h59.6h0.1
		c7.1,0.5,9.1-5.6,9.2-5.9c0.2-0.8,1-1.3,1.8-1.3h31l-2-13c-0.8-5.1-2.9-9.8-6.2-13.7l-21.4-25.4c-2.2-2.5-3.4-5.8-3.4-9.2V77.4
		c0-14-3.7-27.9-10.8-40l-15.2-26.1c-2.7-4.7-7.6-7.4-12.9-7.4c-5.4,0-10.2,2.8-12.9,7.4l-15.3,26c-7.1,12.1-10.8,25.9-10.8,40v34.8
		c0,3.3-1.2,6.6-3.4,9.2l-21.4,25.4c-3.3,3.9-5.4,8.6-6.2,13.7L77.6,173.4z M221.6,174.3L221.6,174.3L221.6,174.3z M77.4,174.2
		L77.4,174.2C77.4,174.3,77.4,174.3,77.4,174.2z"/>
	<circle id="Shape_8_" class="st1" cx="149.3" cy="120.9" r="12.8"/>
	<path class="st2" d="M149.3,135.6c-8.1,0-14.7-6.6-14.7-14.7s6.6-14.7,14.7-14.7s14.7,6.6,14.7,14.7S157.5,135.6,149.3,135.6z
		 M149.3,109.9c-6,0-11,4.9-11,11c0,6,4.9,11,11,11s11-4.9,11-11C160.3,114.8,155.4,109.9,149.3,109.9z"/>
	<circle id="Shape_7_" class="st1" cx="149.5" cy="79.6" r="12.8"/>
	<path class="st2" d="M149.5,94.3c-8.1,0-14.7-6.6-14.7-14.7s6.6-14.7,14.7-14.7s14.7,6.6,14.7,14.7S157.6,94.3,149.5,94.3z
		 M149.5,68.7c-6,0-11,4.9-11,11s4.9,11,11,11c6,0,11-4.9,11-11S155.5,68.7,149.5,68.7z"/>
	<path class="st2" d="M135.2,165.6c-0.2,0-0.3-0.1-0.5-0.2l-11.6-8.9c-0.3-0.3-0.4-0.8-0.1-1.1s0.8-0.4,1.1-0.1l11.6,8.9
		c0.3,0.3,0.4,0.8,0.1,1.1C135.6,165.5,135.4,165.6,135.2,165.6z"/>
	<path class="st2" d="M129.3,166.6c-0.2,0-0.3-0.1-0.5-0.2L123,162c-0.3-0.3-0.4-0.8-0.1-1.1s0.8-0.4,1.1-0.1l5.8,4.4
		c0.3,0.3,0.4,0.8,0.1,1.1C129.8,166.5,129.6,166.6,129.3,166.6z"/>
	<path class="st2" d="M135.2,159.9c-0.2,0-0.3-0.1-0.5-0.2l-3.2-2.4c-0.3-0.3-0.4-0.8-0.1-1.1c0.3-0.3,0.8-0.4,1.1-0.1l3.2,2.4
		c0.3,0.3,0.4,0.8,0.1,1.1C135.6,159.8,135.4,159.9,135.2,159.9z"/>
	<path class="st2" d="M183.3,101.1c-0.4,0-0.8-0.4-0.8-0.8V97c0-0.4,0.4-0.8,0.8-0.8c0.4,0,0.8,0.4,0.8,0.8v3.4
		C184.1,100.8,183.7,101.1,183.3,101.1z"/>
	<path class="st2" d="M183.3,95c-0.4,0-0.8-0.4-0.8-0.8V83.4c0-0.4,0.4-0.8,0.8-0.8c0.4,0,0.8,0.4,0.8,0.8v10.8
		C184.1,94.7,183.7,95,183.3,95z"/>
	<path class="st2" d="M157.6,11c-0.2,0-0.4-0.1-0.6-0.3c-1.2-1.4-2.9-1.9-4-2.1c-0.4-0.1-0.7-0.5-0.6-0.9c0.1-0.4,0.5-0.7,0.9-0.6
		c1.4,0.3,3.4,0.9,4.9,2.6c0.3,0.3,0.3,0.8-0.1,1.1C157.9,10.9,157.7,11,157.6,11z"/>
	<path class="st2" d="M108.6,177.2c-1,0-1.9-0.8-1.9-1.9v-22.9c0-1,0.8-1.9,1.9-1.9s1.9,0.8,1.9,1.9v22.9
		C110.5,176.3,109.6,177.2,108.6,177.2z"/>
	<path class="st2" d="M190.1,177.2c-1,0-1.9-0.8-1.9-1.9v-22.9c0-1,0.8-1.9,1.9-1.9s1.9,0.8,1.9,1.9v22.9
		C192,176.3,191.1,177.2,190.1,177.2z"/>
	<path class="st2" d="M190.1,145.9c2.4,0,2.4-3.8,0-3.8C187.6,142.1,187.6,145.9,190.1,145.9L190.1,145.9z"/>
</g>
</svg>
