<?xml version="1.0" encoding="utf-8"?>
<!-- Generator: Adobe Illustrator 24.1.2, SVG Export Plug-In . SVG Version: 6.00 Build 0)  -->
<svg version="1.1" id="Layer_1" xmlns="http://www.w3.org/2000/svg" xmlns:xlink="http://www.w3.org/1999/xlink" x="0px" y="0px"
	 width="225px" height="200px" viewBox="0 0 225 200" style="enable-background:new 0 0 225 200;" xml:space="preserve">
<style type="text/css">
	.st0{opacity:0.15;}
	.st1{fill:#6A47AF;}
	.st2{fill:#F987D6;}
	.st3{fill:#FFFFFF;}
</style>
<g class="st0">
	<g>
		<path class="st1" d="M112.5,200c-1.3,0-2.6-0.5-3.5-1.5L84.6,172c-0.6-0.7-1.5-1.1-2.4-1.1H19.6C8.8,170.9,0,162.2,0,151.4V19.5
			C0,8.8,8.8,0,19.6,0h185.9C216.2,0,225,8.8,225,19.5v131.9c0,10.8-8.8,19.5-19.6,19.5h-62.6c-0.9,0-1.8,0.4-2.4,1L116,198.5
			C115.1,199.5,113.8,200,112.5,200z M19.6,3.9c-8.6,0-15.7,7-15.7,15.6v131.9c0,8.6,7,15.6,15.7,15.6h62.6c2,0,3.9,0.9,5.3,2.3
			l24.4,26.5c0.2,0.2,0.5,0.2,0.6,0.2s0.4,0,0.6-0.3l24.4-26.5c1.3-1.5,3.2-2.3,5.3-2.3h62.6c8.6,0,15.7-7,15.7-15.6V19.5
			c0-8.6-7-15.6-15.6-15.6C205.5,3.9,19.6,3.9,19.6,3.9z"/>
	</g>
	<path class="st1" d="M29.4,32.8c-0.2,0-0.4-0.1-0.5-0.2l-5.1-4c-0.4-0.3-0.4-0.8-0.1-1.1c0.3-0.4,0.8-0.4,1.2-0.1l5.1,4
		c0.4,0.3,0.4,0.8,0.1,1.1C29.9,32.7,29.7,32.8,29.4,32.8z"/>
	<path class="st1" d="M34.6,31.8c-0.2,0-0.4-0.1-0.5-0.2l-10.3-7.9c-0.4-0.3-0.4-0.8-0.1-1.1c0.3-0.4,0.8-0.4,1.1-0.1l10.3,7.9
		c0.4,0.3,0.4,0.8,0.1,1.1C35.1,31.7,34.8,31.8,34.6,31.8z"/>
	<path class="st1" d="M34.6,26.8c-0.2,0-0.3-0.1-0.5-0.2l-2.8-2.2c-0.4-0.3-0.4-0.8-0.2-1.1c0.3-0.4,0.8-0.4,1.1-0.2l2.8,2.2
		c0.4,0.3,0.4,0.8,0.2,1.1C35.1,26.7,34.9,26.8,34.6,26.8z"/>
	<path class="st1" d="M9.4,145.6c-0.5,0-1-0.4-1-1V129c0-0.5,0.4-1,1-1s1,0.4,1,1v15.6C10.4,145.2,9.9,145.6,9.4,145.6z"/>
	<path class="st1" d="M9.4,125.4c-0.5,0-1-0.4-1-1v-6.1c0-0.5,0.4-1,1-1s1,0.4,1,1v6.1C10.4,124.9,9.9,125.4,9.4,125.4z"/>
	<path class="st1" d="M120.1,181.5c-0.2,0-0.5-0.1-0.7-0.3c-0.4-0.4-0.4-1-0.1-1.4l6.8-7.3c0.4-0.4,1-0.4,1.4-0.1
		c0.4,0.4,0.4,1,0.1,1.4l-6.8,7.3C120.7,181.4,120.4,181.5,120.1,181.5z"/>
	<path class="st1" d="M206.5,162.4c-0.5,0-1-0.4-1-1c0-0.5,0.4-1,1-1c3.5,0,6.3-2.8,6.3-6.3c0-0.5,0.4-1,1-1s1,0.4,1,1
		C214.7,158.7,211,162.4,206.5,162.4z"/>
	<path class="st1" d="M215.2,19.3c-0.5,0-1-0.4-1-1c0-3.5-2.8-6.3-6.3-6.3c-0.5,0-1-0.4-1-1c0-0.5,0.4-1,1-1c4.6,0,8.3,3.7,8.3,8.2
		C216.2,18.8,215.8,19.3,215.2,19.3z"/>
	<g>
		<path class="st2" d="M112.5,148.4c-0.3,0-0.6-0.1-0.9-0.3c-7.5-5-45.7-31.1-55.2-50.9c-9.6-20-4-34.2,2.3-42.6
			C62.5,49.6,72.9,41,88,41c1,0,2,0.1,3,0.1c8.3,0.7,15.5,5.2,20.1,9c0.4,0.3,0.8,0.5,1.2,0.5s0.9-0.1,1.2-0.5
			c4.6-3.8,11.8-8.4,20.1-9c1-0.1,2-0.1,3-0.1c15.1,0,25.5,8.6,29.3,13.6c6.4,8.4,11.9,22.6,2.3,42.6c-9.4,19.8-47.6,45.9-55.1,50.9
			C113.1,148.3,112.8,148.4,112.5,148.4z"/>
		<path class="st1" d="M112.5,150.4c-0.8,0-1.4-0.2-2-0.6c-10.8-7.2-46.4-32-55.8-51.7c-10-20.8-4.1-35.8,2.5-44.6
			c4-5.4,15-14.5,30.8-14.5c1,0,2.1,0.1,3.1,0.1c8.9,0.7,16.5,5.5,21.2,9.5c4.8-3.9,12.3-8.8,21.2-9.5c1-0.1,2.1-0.1,3.2-0.1
			c15.8,0,26.8,9,30.9,14.4c6.7,8.8,12.5,23.7,2.5,44.6c-9.4,19.7-45.1,44.5-55.8,51.7C113.8,150.2,113.1,150.4,112.5,150.4z
			 M88,42.9c-14.2,0-24.1,8.1-27.7,12.8c-6,8-11.2,21.6-2.1,40.6s46.1,44.5,54.2,50c8.1-5.4,45.1-30.9,54.2-50
			c9.2-19.1,3.9-32.6-2.1-40.6c-3.6-4.8-13.5-12.8-27.7-12.8c-0.9,0-1.9,0.1-2.9,0.1c-7.8,0.6-14.6,5-18.9,8.5c-0.7,0.6-1.6,1-2.6,1
			c-0.9,0-1.8-0.3-2.5-0.9c-4.3-3.6-11.1-8-19-8.6C89.9,43,88.9,42.9,88,42.9z"/>
	</g>
	<path class="st1" d="M136.8,42.9c14.3,0,24.2,8,27.7,12.8c8.6,11.4,9.3,25.5,2.1,40.6c-9.2,19.2-46.2,44.6-54.2,49.9
		c-8.1-5.4-45.1-30.9-54.2-49.9c-7.2-15.1-6.5-29.2,2.1-40.6C65,49.6,75.6,42.9,88,42.9c0.9,0,1.9,0.1,2.9,0.1
		c7.8,0.6,14.6,5,19,8.6c0.7,0.6,1.6,0.9,2.5,0.9s1.8-0.3,2.5-0.9c4.4-3.6,11.2-8,19-8.6C134.9,42.9,135.9,42.9,136.8,42.9
		L136.8,42.9 M136.8,39c-1,0-2.1,0.1-3.1,0.1c-8.7,0.7-16.1,5.2-21.2,9.5c-5.1-4.2-12.6-8.8-21.2-9.5c-1-0.1-2.1-0.1-3.1-0.1
		C73.4,39,62,47.1,57.3,53.4c-5,6.7-13.4,21.8-2.5,44.6c9.6,20.1,46.9,45.8,55.8,51.7c0.6,0.4,1.2,0.6,1.9,0.6s1.4-0.2,1.9-0.6
		c8.9-5.9,46.3-31.6,55.8-51.7c10.9-22.9,2.5-37.9-2.5-44.6C163,47.1,151.7,39,136.8,39L136.8,39z"/>
	<path class="st1" d="M158.3,57.4c-0.3,0-0.6-0.1-0.8-0.4c-1.6-2.2-5.4-5.2-10.6-6.3c-0.5-0.1-0.9-0.6-0.8-1.2
		c0.1-0.5,0.6-0.9,1.2-0.8c5.7,1.2,9.9,4.5,11.7,7c0.3,0.4,0.2,1-0.2,1.4C158.7,57.3,158.5,57.4,158.3,57.4z"/>
	<path class="st1" d="M101.5,107c-0.2,0-0.3-0.1-0.5-0.2l-5-3.9c-0.4-0.3-0.4-0.8-0.2-1.1c0.3-0.4,0.8-0.4,1.1-0.2l5,3.9
		c0.4,0.3,0.4,0.8,0.2,1.1C101.9,106.9,101.7,107,101.5,107z"/>
	<path class="st1" d="M106.5,106.1c-0.2,0-0.4-0.1-0.5-0.2l-10.1-7.8c-0.4-0.3-0.4-0.8-0.1-1.1c0.3-0.4,0.8-0.4,1.1-0.1l10.1,7.8
		c0.4,0.3,0.4,0.8,0.1,1.1C107,106,106.7,106.1,106.5,106.1z"/>
	<path class="st1" d="M106.5,101.1c-0.2,0-0.3-0.1-0.5-0.2l-2.8-2.1c-0.4-0.3-0.4-0.8-0.2-1.1c0.3-0.4,0.8-0.4,1.1-0.2l2.8,2.1
		c0.4,0.3,0.4,0.8,0.2,1.1C107,101,106.8,101.1,106.5,101.1z"/>
	<path id="_x33_rd_1_" class="st3" d="M90.6,78.7c-1.7-0.1-1.6-2-1.6-2c-0.1,2.1-1.8,2-1.8,2s1.8,0.2,1.8,2
		C89,80.7,89.2,78.9,90.6,78.7"/>
	<path id="_x32_nd_1_" class="st3" d="M92,68.2c-4-0.2-3.9-4.6-3.9-4.6C88,68.4,84,68.2,84,68.2s4.1,0.4,4.1,4.5
		C88.2,72.7,88.7,68.6,92,68.2"/>
	<path id="_x31_st_1_" class="st3" d="M84,76c-7-0.4-6.8-8.1-6.8-8.1C77,76.4,70,76,70,76s7.2,0.7,7.2,7.9
		C77.2,83.9,78.1,76.7,84,76"/>
</g>
</svg>
