<?xml version="1.0" encoding="utf-8"?>
<!-- Generator: Adobe Illustrator 24.1.2, SVG Export Plug-In . SVG Version: 6.00 Build 0)  -->
<svg version="1.1" id="Layer_1" xmlns="http://www.w3.org/2000/svg" xmlns:xlink="http://www.w3.org/1999/xlink" x="0px" y="0px"
	 width="200px" height="140px" viewBox="0 0 200 140" style="enable-background:new 0 0 200 140;" xml:space="preserve">
<style type="text/css">
	.st0{fill:#CA78F8;stroke:#540E8B;stroke-width:0.9688;stroke-miterlimit:10;}
	.st1{fill:#95E7FC;stroke:#540E8B;stroke-width:1.0764;stroke-miterlimit:10;}
	.st2{fill:url(#SVGID_1_);stroke:#540E8B;stroke-width:1.0764;stroke-miterlimit:10;}
	.st3{fill:#FD99D7;stroke:#540E8B;stroke-width:1.0764;stroke-miterlimit:10;}
	.st4{fill:#FDF7AB;stroke:#540E8B;stroke-width:1.0764;stroke-miterlimit:10;}
	.st5{fill:url(#SVGID_2_);stroke:#540E8B;stroke-width:1.0764;stroke-miterlimit:10;}
	.st6{fill:#540E8B;}
</style>
<g>
	<path class="st0" d="M163.3,54.5c-0.4,3.3-1.8,5.9-3,5.7s-1.8-3-1.4-6.3c0.4-3.3,1.8-5.9,3-5.7C163.2,48.4,163.8,51.2,163.3,54.5z"
		/>
	<path class="st0" d="M145.9,53.6c1.4,3.1,1.6,5.9,0.5,6.4s-3.1-1.6-4.5-4.6c-1.4-3.1-1.6-5.9-0.5-6.4S144.5,50.6,145.9,53.6z"/>
	<path class="st0" d="M141,56.6c1.4,3.1,1.6,5.9,0.5,6.4s-3.1-1.6-4.5-4.6c-1.4-3.1-1.6-5.9-0.5-6.4C137.7,51.5,139.6,53.5,141,56.6
		z"/>
	<path class="st0" d="M138.8,85.3c3,1.6,4.9,3.7,4.4,4.7c-0.6,1.1-3.4,0.7-6.4-0.9s-4.9-3.7-4.4-4.7C133,83.4,135.8,83.8,138.8,85.3
		z"/>
	<path class="st0" d="M169.1,62c-0.3,2.6-1.4,4.6-2.3,4.4c-0.9-0.1-1.4-2.3-1.1-4.9c0.3-2.6,1.4-4.6,2.3-4.4
		C169,57.2,169.4,59.4,169.1,62z"/>
	<path class="st1" d="M126.7,53c-3.9-24.4-27.6-46-52-42.1S34.4,42.7,38.3,67.1s28.5,51.5,52.9,47.6S130.6,77.4,126.7,53z"/>
	
		<linearGradient id="SVGID_1_" gradientUnits="userSpaceOnUse" x1="75.9429" y1="107.9623" x2="75.9429" y2="5.1461" gradientTransform="matrix(0.9875 -0.1574 -0.1574 -0.9875 16.6995 129.6792)">
		<stop  offset="3.558720e-03" style="stop-color:#FD99D7"/>
		<stop  offset="0.9964" style="stop-color:#FDF7AB;stop-opacity:0"/>
	</linearGradient>
	<path class="st2" d="M126.7,53c-3.9-24.4-27.6-46-52-42.1S34.4,42.7,38.3,67.1s28.5,51.5,52.9,47.6S130.6,77.4,126.7,53z"/>
	<g>
		<path class="st3" d="M89.1,100.1c-3.5,0.6-6.4-0.6-7.6-2.3c-0.1,0.2-0.2,0.4-0.3,0.6c-0.8,2.7,3.1,5.3,8,4.5c4.7-0.8,8-4,6.3-6.6
			C94.6,98.1,92.2,99.6,89.1,100.1z"/>
		<path class="st4" d="M89.1,100.1c3.1-0.5,5.5-2,6.4-3.8c0-0.1-0.1-0.1-0.1-0.2c-2.5-3.1-7,1.9-7,1.9s-5.3-3.2-6.9-0.1
			C82.7,99.5,85.6,100.6,89.1,100.1z"/>
	</g>
	<polygon class="st1" points="147.3,36.3 149.2,31.2 152.6,35.5 150.6,40.6 	"/>
	<polygon class="st1" points="37.9,98.2 39.8,93.1 43.2,97.4 41.3,102.5 	"/>
	<path class="st4" d="M59.6,118c-0.5-0.8-3-0.4-3.8-0.4c-1.8,0.1-3.7,0.3-5.5,0.5c-0.2,0-0.7,0.2-0.8,0c-0.2-0.2-0.2-1.2-0.3-1.4
		c-0.4-1.9-0.8-3.8-1.3-5.6c-0.1-0.5-0.8-3.6-1.6-3.5c-0.7,0.1-0.5,2.4-0.5,2.8c0,2,0.2,4,0.4,6c0.1,0.5,0.3,1.4,0.2,1.9
		s0.1,0.1-0.2,0.4c-0.5,0.3-1.5,0.3-2,0.4c-1,0.2-2,0.4-3,0.7c-0.9,0.2-1.8,0.5-2.7,0.8c-0.3,0.1-1.5,0.4-1.6,0.8
		c-0.3,0.8,1.8,0.6,2.2,0.6c2,0,3.9-0.2,5.9-0.4c0.4,0,1.4-0.4,1.8-0.2c0.2,0.1,0.1,0.2,0.2,0.5c0.4,1.7,0.7,3.4,1.1,5.1
		c0.2,1,0.5,1.9,0.8,2.9c0.2,0.5,0.4,1.5,0.8,1.9c0.8,0.7,0.8-0.7,0.9-1.3c0.1-2-0.1-4-0.3-5.9c-0.1-0.9-0.2-1.7-0.3-2.6
		c0-0.2-0.2-0.9-0.1-1.1c0.1-0.1,0.9-0.2,1.1-0.2c0.9-0.2,1.8-0.4,2.6-0.6c1.7-0.4,3.7-0.7,5.3-1.6C59.2,118.5,59.7,118.3,59.6,118z
		"/>
	<path class="st4" d="M147.2,23.7c-0.5-0.8-3-0.4-3.8-0.4c-1.8,0.1-3.7,0.3-5.5,0.5c-0.2,0-0.7,0.2-0.8,0c-0.2-0.2-0.2-1.2-0.3-1.4
		c-0.4-1.9-0.8-3.8-1.3-5.6c-0.1-0.5-0.8-3.6-1.6-3.5c-0.7,0.1-0.5,2.4-0.5,2.8c0,2,0.2,4,0.4,6c0.1,0.5,0.3,1.4,0.2,1.9
		s0.1,0.1-0.2,0.4c-0.5,0.3-1.5,0.3-2,0.4c-1,0.2-2,0.4-3,0.7c-0.9,0.2-1.8,0.5-2.7,0.8c-0.3,0.1-1.5,0.4-1.6,0.8
		c-0.3,0.8,1.8,0.6,2.2,0.6c2,0,3.9-0.2,5.9-0.4c0.4,0,1.4-0.4,1.8-0.2c0.2,0.1,0.1,0.2,0.2,0.5c0.4,1.7,0.7,3.4,1.1,5.1
		c0.2,1,0.5,1.9,0.8,2.9c0.2,0.5,0.4,1.5,0.8,1.9c0.8,0.7,0.8-0.7,0.9-1.3c0.1-2-0.1-4-0.3-5.9c-0.1-0.9-0.2-1.7-0.3-2.6
		c0-0.2-0.2-0.9-0.1-1.1c0.1-0.1,0.9-0.2,1.1-0.2c0.9-0.2,1.8-0.4,2.6-0.6c1.7-0.4,3.7-0.7,5.3-1.6C146.8,24.2,147.3,24,147.2,23.7z
		"/>
	<path class="st4" d="M35.7,110.3c0.2,1-0.5,2-1.5,2.1c-1,0.2-2-0.5-2.1-1.5c-0.2-1,0.5-2,1.5-2.1C34.6,108.6,35.5,109.3,35.7,110.3
		z"/>
	<path class="st4" d="M147.4,13.2c0.2,1-0.5,2-1.5,2.1c-1,0.2-2-0.5-2.1-1.5c-0.2-1,0.5-2,1.5-2.1C146.3,11.5,147.2,12.2,147.4,13.2
		z"/>
	<path class="st4" d="M54,110.5c0.1,0.7-0.4,1.3-1,1.4c-0.7,0.1-1.3-0.4-1.4-1c-0.1-0.7,0.4-1.3,1-1.4
		C53.2,109.4,53.9,109.9,54,110.5z"/>
	<path class="st4" d="M156.4,22.4c0.1,0.7-0.4,1.3-1,1.4c-0.7,0.1-1.3-0.4-1.4-1c-0.1-0.7,0.4-1.3,1-1.4
		C155.7,21.3,156.3,21.8,156.4,22.4z"/>
	<path class="st1" d="M146.6,87c0,0-10.3-4.2-11-1.1c-0.9,3.9,13.5,14.7,26.3,12s10.6-10.7,5.8-19.2c0,0,3.6-16.9,0.2-18.3
		c-3.4-1.4-5.3,13.3-5.3,13.3s2.4-20.7-0.9-21.4c-3.3-0.7-4.7,4.8-5.5,20.1c0,0-9.8-21.9-13.1-20.1c-2.2,1.1-0.8,5.8-0.8,5.8
		s-2.8-4-4.5-2.4C136.1,57.2,136.9,62.1,146.6,87z"/>
	
		<linearGradient id="SVGID_2_" gradientUnits="userSpaceOnUse" x1="135.8366" y1="62.6712" x2="150.7339" y2="-1.8836" gradientTransform="matrix(0.9875 -0.1574 -0.1574 -0.9875 16.6995 129.6792)">
		<stop  offset="3.558720e-03" style="stop-color:#FD99D7"/>
		<stop  offset="0.9964" style="stop-color:#FDF7AB;stop-opacity:0"/>
	</linearGradient>
	<path class="st5" d="M146.6,87c0,0-10.3-4.2-11-1.1c-0.9,3.9,13.5,14.7,26.3,12s10.6-10.7,5.8-19.2c0,0,3.6-16.9,0.2-18.3
		c-3.4-1.4-5.3,13.3-5.3,13.3s2.4-20.7-0.9-21.4c-3.3-0.7-4.7,4.8-5.5,20.1c0,0-9.8-21.9-13.1-20.1c-2.2,1.1-0.8,5.8-0.8,5.8
		s-2.8-4-4.5-2.4C136.1,57.2,136.9,62.1,146.6,87z"/>
	<g>
		<g>
			<path class="st6" d="M150.6,88.1c2.3-0.6,4.7,0.2,6.2,2c0.3,0.4,1-0.1,0.7-0.5c-1.5-2.2-4.6-3.2-7.1-2.3
				C149.8,87.4,150,88.2,150.6,88.1L150.6,88.1z"/>
		</g>
	</g>
	<g>
		<g>
			<path class="st6" d="M140.8,57.2c3.4,4.9,6.1,10,8.1,15.6c0.2,0.4,0.8,0.3,0.7-0.2c-1.6-5.7-4.5-11.2-8.2-15.8
				C141.1,56.4,140.5,56.9,140.8,57.2L140.8,57.2z"/>
		</g>
	</g>
	<g>
		<g>
			<path class="st6" d="M151.2,78.8c0.1,0.2,0.3,0.4,0.4,0.6c0.1,0.1,0.1,0.2,0.2,0.3l0.1,0.1c0.1,0.1,0.2,0.2,0.3,0.2
				s0.2,0,0.3-0.1s0.1-0.1,0.1-0.2c0-0.2-0.1-0.3-0.2-0.4c-0.1-0.1-0.1-0.2-0.2-0.3c-0.1-0.2-0.3-0.4-0.4-0.6
				c-0.1-0.1-0.1-0.1-0.2-0.1c-0.1,0-0.2,0-0.2,0C151.2,78.5,151.1,78.7,151.2,78.8L151.2,78.8z"/>
		</g>
	</g>
	<g>
		<g>
			<path class="st6" d="M162.6,71.1c-0.1,1.3-0.2,2.5-0.2,3.8c0,0.5,0.7,0.5,0.8,0c0.1-1.3,0.1-2.5,0.1-3.8
				C163.4,70.7,162.7,70.7,162.6,71.1L162.6,71.1z"/>
		</g>
	</g>
	<g>
		<g>
			<path class="st6" d="M77,63.6c1.6-1.4,3.6-2.3,5.6-2.6c1-0.1,2-0.2,3,0c1.1,0.1,2,0.5,3.1,0.9c0.4,0.1,0.6-0.5,0.3-0.7
				c-1.8-1.2-4.5-1.4-6.6-1.1c-2.3,0.3-4.4,1.3-6,3C76.1,63.4,76.7,64,77,63.6L77,63.6z"/>
		</g>
	</g>
	<g>
		<g>
			<path class="st6" d="M96.8,89.2c0.1-2.8,0.8-5.5,2.2-8c1.4-2.5,3.3-4.4,5.6-6c0.4-0.3,0.1-0.9-0.4-0.7c-5.1,2.7-8.4,9-8.1,14.7
				C96.1,89.6,96.7,89.6,96.8,89.2L96.8,89.2z"/>
		</g>
	</g>
	<g>
		<g>
			<path class="st6" d="M66.8,81.5c4.1,0.8,7.4,3.4,9.5,6.9c0.3,0.4,0.8,0.1,0.6-0.4c-1.7-3.9-5.8-6.6-9.9-7.3
				C66.6,80.7,66.3,81.4,66.8,81.5L66.8,81.5z"/>
		</g>
	</g>
	<g>
		<g>
			<path class="st6" d="M88.4,108.4c0.4-0.5,1-0.8,1.6-0.9s1.2,0,1.7,0.3c0.4,0.2,0.7-0.3,0.4-0.6c-0.6-0.5-1.5-0.6-2.3-0.5
				s-1.5,0.5-2,1.1c-0.1,0.1-0.1,0.4,0,0.5C88.1,108.6,88.3,108.6,88.4,108.4L88.4,108.4z"/>
		</g>
	</g>
	<g>
		<g>
			<path class="st6" d="M117.5,45.7c0.4,1.4,0.9,2.8,1.4,4.2c0.2,0.4,0.7,0.2,0.6-0.2c-0.4-1.4-0.9-2.8-1.4-4.2
				C118,45.1,117.4,45.3,117.5,45.7L117.5,45.7z"/>
		</g>
	</g>
	<g>
		<g>
			<path class="st6" d="M120.1,53.4c0.6,2.4,0.7,4.9,0.5,7.4c0,0.4,0.6,0.5,0.6,0.1c0.4-2.5,0.1-5.2-0.5-7.6
				C120.6,52.9,120,53.1,120.1,53.4L120.1,53.4z"/>
		</g>
	</g>
	<g>
		<g>
			<path class="st6" d="M115.4,51.7c0.1,0.4,0.1,0.8,0.2,1.2s0.2,0.8,0.2,1.2c0,0.2,0.2,0.3,0.4,0.2c0.2,0,0.3-0.2,0.3-0.3
				c0-0.4-0.1-0.9-0.2-1.3c-0.1-0.4-0.1-0.8-0.2-1.2c0-0.2-0.3-0.3-0.5-0.3C115.4,51.3,115.3,51.5,115.4,51.7L115.4,51.7z"/>
		</g>
	</g>
	<g>
		<g>
			<path class="st6" d="M44.7,41.9c-0.5,0.8-0.9,1.7-1.1,2.6c-0.1,0.5-0.2,0.9-0.3,1.4s-0.2,1-0.1,1.4c0,0.4,0.7,0.6,0.8,0.1
				c0.1-0.4,0.1-0.9,0.2-1.3c0.1-0.5,0.2-0.9,0.3-1.4c0.2-0.9,0.5-1.7,1-2.5C45.6,41.9,44.9,41.5,44.7,41.9L44.7,41.9z"/>
		</g>
	</g>
	<g>
		<g>
			<path class="st6" d="M43,51.8c0,0.7,0,1.5-0.1,2.2c0,0.7-0.1,1.5,0,2.2c0.1,0.5,0.7,0.5,0.7,0c0.1-0.7,0-1.5,0-2.2s0-1.5-0.1-2.2
				C43.6,51.4,43,51.4,43,51.8L43,51.8z"/>
		</g>
	</g>
	<g>
		<g>
			<path class="st6" d="M49.1,46.2c-0.3,0.6-0.6,1.3-0.8,2c-0.1,0.4-0.1,0.7-0.1,1.1c0,0.4,0,0.8,0.1,1.1c0.1,0.4,0.8,0.4,0.8-0.1
				c0-0.3,0-0.7,0-1s0-0.6,0.1-0.9c0.1-0.6,0.3-1.2,0.6-1.8C50,46.2,49.4,45.8,49.1,46.2L49.1,46.2z"/>
		</g>
	</g>
	<g>
		<g>
			<path class="st6" d="M74.2,15.7c-1.3-0.1-2.8,0.7-3.3,1.9c-0.1,0.2,0.1,0.4,0.2,0.5c0.2,0.1,0.4,0,0.5-0.2s0.3-0.4,0.5-0.6
				s0.4-0.3,0.6-0.5c0.5-0.3,1-0.4,1.5-0.4C74.6,16.4,74.6,15.7,74.2,15.7L74.2,15.7z"/>
		</g>
	</g>
	<g>
		<g>
			<path class="st6" d="M82.4,50c0,0.2,0,0.3,0.1,0.5c0,0.2,0.1,0.3,0.1,0.5c0-0.1,0,0,0,0v0.1c0,0.1,0,0.2,0,0.3s0,0.1,0,0.2v0.1
				c0,0.1,0,0.2,0.1,0.3s0.3,0.2,0.4,0.2s0.3-0.1,0.3-0.3c0-0.1,0-0.2,0-0.2c0-0.1,0-0.1,0-0.2c0-0.1,0-0.1,0-0.2
				c0-0.2-0.1-0.3-0.1-0.5c-0.1-0.3-0.1-0.6-0.2-1c0-0.2-0.3-0.3-0.5-0.3C82.4,49.6,82.3,49.8,82.4,50L82.4,50z"/>
		</g>
	</g>
	<g>
		<g>
			<path class="st6" d="M83.5,37.3c0.1,0.6,0.2,1.2,0.3,1.8c0,0.3,0.1,0.6,0.1,0.9c0.1,0.3,0.1,0.6,0.2,0.9c0.1,0.4,0.8,0.3,0.8-0.1
				c0-0.3-0.1-0.7-0.1-1s-0.1-0.6-0.2-0.9c-0.1-0.6-0.2-1.2-0.3-1.9c0-0.2-0.3-0.3-0.5-0.3C83.5,36.8,83.4,37,83.5,37.3L83.5,37.3z"
				/>
		</g>
	</g>
	<g>
		<g>
			<path class="st6" d="M88.5,45.3c0,0.2,0.1,0.4,0.1,0.6c0,0.1,0,0.2,0.1,0.3v0.1c0,0.1,0,0.2,0.1,0.2c0.1,0.1,0.2,0.2,0.4,0.2
				c0.1,0,0.1,0,0.2-0.1c0.1,0,0.1-0.1,0.1-0.2c0-0.1,0-0.1,0-0.2c0-0.1,0-0.1,0-0.2v-0.1c0-0.1,0-0.2,0-0.3c0-0.2-0.1-0.4-0.1-0.6
				c0-0.1-0.1-0.2-0.2-0.2s-0.2-0.1-0.3,0c-0.1,0-0.2,0.1-0.2,0.2v0.1C88.5,45.1,88.5,45.2,88.5,45.3L88.5,45.3z"/>
		</g>
	</g>
	<g>
		<g>
			<path class="st6" d="M83.9,83.9c1.5,0.3,3.3,0.1,4.6-0.9c0.1-0.1,0.2-0.3,0.1-0.4s-0.3-0.3-0.4-0.2c-0.7,0.3-1.4,0.6-2.1,0.7
				s-1.4,0.1-2.2,0.1C83.5,83.1,83.4,83.8,83.9,83.9L83.9,83.9z"/>
		</g>
	</g>
	<g>
		<g>
			<path class="st6" d="M70.2,105.8c0.7,0.1,1.4,0,2.1-0.2s1.4-0.6,1.8-1c0.3-0.4-0.1-0.9-0.5-0.7c-0.3,0.2-0.5,0.3-0.8,0.5
				c-0.3,0.1-0.5,0.2-0.8,0.3c-0.6,0.2-1.2,0.3-1.8,0.3c-0.2,0-0.4,0.2-0.4,0.4C69.8,105.6,70,105.8,70.2,105.8L70.2,105.8z"/>
		</g>
	</g>
	<g>
		<g>
			<path class="st6" d="M106.3,99.3c-0.6,0.2-1.2,0.2-1.8,0.2c-0.3,0-0.6,0-0.9-0.1c-0.3,0-0.6-0.1-0.9-0.2c-0.2,0-0.4,0-0.5,0.3
				c-0.1,0.2,0,0.4,0.2,0.5c0.6,0.3,1.4,0.5,2.1,0.4c0.7,0,1.4-0.2,2.1-0.5C107,99.8,106.7,99.1,106.3,99.3L106.3,99.3z"/>
		</g>
	</g>
	<g>
		<path class="st3" d="M85,76c-5.2,0.8-10-0.7-11.8-3.5c-0.2,0.6-0.2,1.3-0.1,1.9c0.6,3.9,6.2,6.3,12.5,5.3s10.9-5,10.2-8.9
			c-0.1-0.6-0.3-1.2-0.7-1.8C94.3,72.3,90.2,75.2,85,76z"/>
		<path class="st4" d="M85,76c5.2-0.8,9.3-3.8,10.1-7c-1.8-2.8-6.5-4.3-11.8-3.5c-5.2,0.8-9.3,3.8-10.1,7C75,75.3,79.7,76.8,85,76z"
			/>
	</g>
	<g>
		<path class="st3" d="M115.7,76.4c-1.7-1.2-3.9-1.2-6.3-0.1c0.7,0.1,1.4,0.4,2,0.8c3.2,2.3,2.8,8.4-1,13.5c-1.8,2.5-4,4.3-6.2,5.3
			c3.2,0.5,7.5-1.7,10.5-5.9C118.4,84.8,118.9,78.7,115.7,76.4z"/>
		<path class="st4" d="M111.4,77.1c-0.6-0.4-1.3-0.7-2-0.8c-2.2,1-4.4,2.8-6.2,5.3c-3.7,5.1-4.2,11.2-1,13.5c0.6,0.4,1.3,0.7,2,0.8
			c2.2-1,4.4-2.8,6.2-5.3C114.1,85.5,114.6,79.4,111.4,77.1z"/>
	</g>
	<g>
		<path class="st3" d="M56.6,85.8c1.2-1.7,3.4-2.3,5.9-2.1c-0.7,0.3-1.2,0.8-1.6,1.4c-2.3,3.2,0,8.8,5.1,12.5
			c2.5,1.8,5.2,2.8,7.6,3.1c-2.9,1.5-7.7,0.7-11.9-2.4C56.6,94.6,54.3,89,56.6,85.8z"/>
		<path class="st4" d="M60.9,85.1c0.4-0.6,1-1.1,1.6-1.4c2.4,0.2,5.1,1.2,7.6,3.1c5.1,3.7,7.4,9.3,5.1,12.5c-0.4,0.6-1,1.1-1.6,1.4
			c-2.4-0.2-5.1-1.2-7.6-3.1C60.9,94,58.6,88.3,60.9,85.1z"/>
	</g>
</g>
</svg>
