<?xml version="1.0" encoding="utf-8"?>
<!-- Generator: Adobe Illustrator 24.1.2, SVG Export Plug-In . SVG Version: 6.00 Build 0)  -->
<svg version="1.1" id="Layer_1" xmlns="http://www.w3.org/2000/svg" xmlns:xlink="http://www.w3.org/1999/xlink" x="0px" y="0px"
	 width="200px" height="140px" viewBox="0 0 200 140" style="enable-background:new 0 0 200 140;" xml:space="preserve">
<style type="text/css">
	.st0{fill:#CA78F8;stroke:#540E8B;stroke-width:1.0764;stroke-miterlimit:10;}
	.st1{fill:url(#SVGID_1_);stroke:#540E8B;stroke-width:1.0764;stroke-miterlimit:10;}
	.st2{fill:#95E7FC;stroke:#540E8B;stroke-width:1.0764;stroke-miterlimit:10;}
	.st3{fill:#FDF7AB;stroke:#540E8B;stroke-width:1.0764;stroke-miterlimit:10;}
	.st4{fill:#FDF3B6;}
	.st5{fill:none;}
	.st6{fill:#FD99D7;stroke:#540E8B;stroke-width:1.0764;stroke-miterlimit:10;}
	.st7{fill:url(#SVGID_2_);stroke:#540E8B;stroke-width:1.0764;stroke-miterlimit:10;}
</style>
<g>
	<path class="st0" d="M147.1,60.6c-1.9-9.1-6.5-28.2-12.3-28.7c-3.5-0.3-7.5,5.8-11,12.6c-5.4-2-11.4-3.4-17.6-4
		c-6.5-0.6-12.7-0.4-18.6,0.6c-2.3-7.5-5.3-14.4-8.8-14.7c-5.9-0.6-13.6,17.5-16.9,26.1C55.5,58,51.3,65.1,50.5,73
		c-2,20.8,19.6,39.9,48.3,42.7c28.7,2.8,53.6-11.8,55.7-32.5C155.3,75.1,152.5,67.3,147.1,60.6z"/>
	
		<linearGradient id="SVGID_1_" gradientUnits="userSpaceOnUse" x1="117.9915" y1="105.9086" x2="117.9915" y2="37.5528" gradientTransform="matrix(0.9953 9.700000e-02 -9.700000e-02 0.9953 -7.4859 -9.623)">
		<stop  offset="3.558720e-03" style="stop-color:#FD99D7"/>
		<stop  offset="0.9964" style="stop-color:#FDF7AB;stop-opacity:0"/>
	</linearGradient>
	<path class="st1" d="M147.1,60.6c-1.9-9.1-6.5-28.2-12.3-28.7c-3.5-0.3-7.5,5.8-11,12.6c-5.4-2-11.4-3.4-17.6-4
		c-6.5-0.6-12.7-0.4-18.6,0.6c-2.3-7.5-5.3-14.4-8.8-14.7c-5.9-0.6-13.6,17.5-16.9,26.1C55.5,58,51.3,65.1,50.5,73
		c-2,20.8,19.6,39.9,48.3,42.7c28.7,2.8,53.6-11.8,55.7-32.5C155.3,75.1,152.5,67.3,147.1,60.6z"/>
	<g>
		<path class="st2" d="M101.5,70.3c-3.6-0.4-6.3-2.3-7-4.3c-0.1,0.2-0.3,0.3-0.4,0.5c-1.6,2.5,1.7,6.2,6.9,6.7c5,0.5,9.2-1.9,8.1-5
			C107.6,69.7,104.7,70.6,101.5,70.3z"/>
		<path class="st3" d="M101.5,70.3c3.2,0.3,6.1-0.6,7.5-2.1c0-0.1,0-0.2-0.1-0.2c-1.7-3.8-7.5,0-7.5,0s-4.5-4.6-7-2
			C95.2,68,97.9,69.9,101.5,70.3z"/>
	</g>
	<g>
		<g>
			<path class="st4" d="M103.5,45.4c-0.1,0.6-0.2,1.3-0.3,2c0,0.3-0.1,0.6-0.1,0.9c0,0.4-0.1,0.8,0,1.2c0,0.2,0.3,0.4,0.6,0.4
				c0.3,0,0.5-0.2,0.6-0.4c0.1-0.2,0.1-0.4,0.1-0.6c0-0.2,0.1-0.4,0.1-0.6c0-0.3,0.1-0.6,0.1-0.9c0.1-0.7,0.1-1.4,0.1-2
				c0-0.3-0.3-0.6-0.6-0.6C103.7,44.8,103.5,45.1,103.5,45.4L103.5,45.4z"/>
		</g>
	</g>
	<g>
		<g>
			<path class="st4" d="M108.2,50.3C108.2,50.4,108.2,50.4,108.2,50.3C108.2,50.4,108.2,50.4,108.2,50.3c0,0,0,0.2,0,0.2
				c0,0.1,0,0.2,0,0.3c0,0.2-0.1,0.4-0.1,0.5c-0.1,0.4-0.2,0.8-0.1,1.2c0,0.2,0.1,0.5,0.3,0.6c0.2,0.1,0.3,0.1,0.5,0.1
				c0.2-0.1,0.4-0.2,0.5-0.5c0-0.2,0.1-0.5,0.1-0.7c0-0.2,0-0.4,0-0.5c0-0.2,0-0.4,0-0.5c0-0.1,0-0.2,0-0.3c0-0.1,0-0.2,0-0.2
				c0,0.1,0,0.1,0,0c0,0,0-0.1,0-0.1c0-0.3-0.3-0.6-0.6-0.6c-0.1,0-0.3,0.1-0.4,0.2C108.3,50,108.2,50.2,108.2,50.3L108.2,50.3z"/>
		</g>
	</g>
	<g>
		<g>
			<path class="st4" d="M97.6,49.4c0,0.3-0.1,0.6-0.1,1c0,0.1,0,0.2,0,0.2c0,0.1,0,0.2,0,0.2c0,0.2,0,0.3,0,0.5c0,0.1,0,0.3,0.2,0.4
				c0.1,0.1,0.2,0.1,0.3,0.1c0.3,0,0.5-0.1,0.6-0.4c0.1-0.2,0.1-0.3,0.1-0.5c0-0.1,0.1-0.2,0.1-0.4c0-0.1,0-0.2,0-0.2
				c0-0.3,0.1-0.7,0.1-1c0-0.1-0.1-0.3-0.2-0.4c-0.1-0.1-0.3-0.2-0.4-0.2c-0.2,0-0.3,0.1-0.4,0.2C97.7,49.1,97.7,49.3,97.6,49.4
				L97.6,49.4z"/>
		</g>
	</g>
	<path class="st5" d="M154.2,85.3c15.2-0.3,24.9-1.9,25.2-4.7c0.3-3-10-6.7-26.6-10.1c1.5,4.1,2.1,8.3,1.7,12.7
		C154.4,83.9,154.3,84.6,154.2,85.3z"/>
	<path class="st5" d="M54.9,60.6c-19.1-0.1-31.6,1.6-31.9,4.8c-0.3,3,10.4,6.8,27.5,10.3c0-0.8,0-1.7,0.1-2.5
		C51,68.5,52.5,64.4,54.9,60.6z"/>
	<path class="st6" d="M151.1,66.5c0.7,1.3,1.3,2.6,1.8,4c16.5,3.4,26.8,7.1,26.6,10.1c-0.3,2.8-9.9,4.4-25.2,4.7
		c-14.2,0.3-33.2-0.5-54-2.6c-19-1.9-36.4-4.4-49.8-7.1c-17.1-3.5-27.8-7.2-27.5-10.3c0.3-3.2,12.8-4.8,31.9-4.8
		c0.8-1.2,1.6-2.4,2.6-3.5c-28.3-0.2-47.7,2.9-48.2,8.5c-0.5,5.3,16.3,11.7,42,16.9c14,2.8,30.5,5.3,48.4,7
		c19.5,1.9,37.6,2.7,52.7,2.4c24.1-0.4,40.1-3.3,40.6-8.4C193.4,78,176.6,71.7,151.1,66.5z"/>
	<path class="st2" d="M151.1,66.5c0.7,1.3,1.3,2.6,1.8,4c16.5,3.4,26.8,7.1,26.6,10.1c-0.3,2.8-9.9,4.4-25.2,4.7
		c-14.2,0.3-33.2-0.5-54-2.6c-19-1.9-36.4-4.4-49.8-7.1c-17.1-3.5-27.8-7.2-27.5-10.3c0.3-3.2,12.8-4.8,31.9-4.8
		c0.8-1.2,1.6-2.4,2.6-3.5c-28.3-0.2-47.7,2.9-48.2,8.5c-0.5,5.3,16.3,11.7,42,16.9c14,2.8,30.5,5.3,48.4,7
		c19.5,1.9,37.6,2.7,52.7,2.4c24.1-0.4,40.1-3.3,40.6-8.4C193.4,78,176.6,71.7,151.1,66.5z"/>
	
		<linearGradient id="SVGID_2_" gradientUnits="userSpaceOnUse" x1="23.8875" y1="74.0785" x2="208.3907" y2="74.0785" gradientTransform="matrix(0.9953 9.700000e-02 -9.700000e-02 0.9953 -7.4859 -9.623)">
		<stop  offset="3.558720e-03" style="stop-color:#FD99D7"/>
		<stop  offset="0.9964" style="stop-color:#FDF7AB;stop-opacity:0"/>
	</linearGradient>
	<path class="st7" d="M151.1,66.5c0.7,1.3,1.3,2.6,1.8,4c16.5,3.4,26.8,7.1,26.6,10.1c-0.3,2.8-9.9,4.4-25.2,4.7
		c-14.2,0.3-33.2-0.5-54-2.6c-19-1.9-36.4-4.4-49.8-7.1c-17.1-3.5-27.8-7.2-27.5-10.3c0.3-3.2,12.8-4.8,31.9-4.8
		c0.8-1.2,1.6-2.4,2.6-3.5c-28.3-0.2-47.7,2.9-48.2,8.5c-0.5,5.3,16.3,11.7,42,16.9c14,2.8,30.5,5.3,48.4,7
		c19.5,1.9,37.6,2.7,52.7,2.4c24.1-0.4,40.1-3.3,40.6-8.4C193.4,78,176.6,71.7,151.1,66.5z"/>
	<polygon class="st2" points="38,91.5 40.8,87.5 42.7,92 39.9,96 	"/>
	<polygon class="st6" points="163.6,59.5 166.3,55.5 168.3,59.9 165.5,63.9 	"/>
	<polygon class="st2" points="44.9,100.2 48.7,94.8 51.3,100.9 47.5,106.3 	"/>
	<polygon class="st6" points="156.6,50.4 160.4,45 163,51.1 159.2,56.5 	"/>
	<path class="st3" d="M45.6,59.2c-0.3-0.8-2.5-1.1-3.2-1.2c-1.6-0.3-3.2-0.6-4.9-0.8c-0.2,0-0.6,0-0.7-0.1c-0.1-0.2,0.1-1.1,0.1-1.3
		c0.1-1.7,0.2-3.5,0.1-5.2c0-0.5,0.1-3.3-0.6-3.4c-0.6-0.1-1,1.9-1.1,2.3c-0.4,1.7-0.7,3.5-1,5.3c-0.1,0.5,0,1.2-0.2,1.7
		c-0.2,0.4,0.1,0.2-0.3,0.3c-0.5,0.2-1.3-0.1-1.8-0.1c-0.9,0-1.8-0.1-2.7-0.1c-0.8,0-1.7,0-2.5,0.1c-0.3,0-1.4,0-1.6,0.3
		c-0.4,0.6,1.4,1,1.8,1.1c1.7,0.4,3.4,0.7,5.2,1c0.3,0,1.3,0,1.6,0.2c0.1,0.1,0.1,0.2,0.1,0.5c0,1.5-0.2,3.1-0.2,4.6
		c0,0.9,0,1.8,0.1,2.7c0,0.5,0,1.4,0.3,1.8c0.5,0.8,0.9-0.4,1-0.9c0.6-1.7,0.8-3.4,1.1-5.2c0.1-0.8,0.2-1.5,0.3-2.3
		c0-0.1,0-0.9,0.1-0.9c0.1-0.1,0.8,0,1,0.1c0.8,0,1.6,0.1,2.4,0.1c1.6,0,3.4,0.2,4.9-0.2C45.1,59.5,45.6,59.5,45.6,59.2z"/>
	<path class="st3" d="M194.2,90.6c-0.3-0.8-2.5-1.1-3.2-1.2c-1.6-0.3-3.2-0.6-4.9-0.8c-0.2,0-0.6,0-0.7-0.1
		c-0.1-0.2,0.1-1.1,0.1-1.3c0.1-1.7,0.2-3.5,0.1-5.2c0-0.5,0.1-3.3-0.6-3.4c-0.6-0.1-1,1.9-1.1,2.3c-0.4,1.7-0.7,3.5-1,5.3
		c-0.1,0.5,0,1.2-0.2,1.7c-0.2,0.4,0.1,0.2-0.3,0.3c-0.5,0.2-1.3-0.1-1.8-0.1c-0.9,0-1.8-0.1-2.7-0.1c-0.8,0-1.7,0-2.5,0.1
		c-0.3,0-1.4,0-1.6,0.3c-0.4,0.6,1.4,1,1.8,1.1c1.7,0.4,3.4,0.7,5.2,1c0.3,0,1.3,0,1.6,0.2c0.1,0.1,0.1,0.2,0.1,0.5
		c0,1.5-0.2,3.1-0.2,4.6c0,0.9,0,1.8,0.1,2.7c0,0.5,0,1.4,0.3,1.8c0.5,0.8,0.9-0.4,1-0.9c0.6-1.7,0.8-3.4,1.1-5.2
		c0.1-0.8,0.2-1.5,0.3-2.3c0-0.1,0-0.9,0.1-0.9c0.1-0.1,0.8,0,1,0.1c0.8,0,1.6,0.1,2.4,0.1c1.6,0,3.4,0.2,4.9-0.2
		C193.7,90.9,194.2,90.8,194.2,90.6z"/>
	<g>
		<path class="st2" d="M76.7,64.2c0.4-4.3,2.5-7.7,5-8.6c-0.5-0.3-1-0.5-1.6-0.6c-3.2-0.3-6.2,3.6-6.7,8.8c-0.5,5.2,1.7,9.7,4.9,10
			c0.6,0.1,1.1,0,1.7-0.2C77.7,72.3,76.3,68.5,76.7,64.2z"/>
		
			<ellipse transform="matrix(9.696377e-02 -0.9953 0.9953 9.696377e-02 8.6712 138.8312)" class="st3" cx="80.8" cy="64.6" rx="9.1" ry="4.2"/>
	</g>
	<g>
		<path class="st2" d="M126.5,69.1c0.4-4.3-1-8-3.3-9.4c0.6-0.2,1.1-0.3,1.7-0.2c3.2,0.3,5.4,4.8,4.9,10c-0.5,5.2-3.5,9.1-6.7,8.8
			c-0.6-0.1-1.1-0.3-1.6-0.6C124,76.8,126.1,73.3,126.5,69.1z"/>
		<path class="st3" d="M118.2,68.3c0.4-4.3,2.5-7.7,5-8.6c2.3,1.4,3.7,5.2,3.3,9.4c-0.4,4.3-2.5,7.7-5,8.6
			C119.2,76.3,117.8,72.5,118.2,68.3z"/>
	</g>
	<g>
		<g>
			<path class="st4" d="M134.1,68.3c0.9-0.2,1.9-0.4,2.8-0.6c0.9-0.2,1.9-0.4,2.8-0.7c0.3-0.1,0.5-0.3,0.4-0.6
				c0-0.3-0.3-0.5-0.6-0.5c-1,0.1-2,0.4-2.9,0.6c-1,0.2-1.9,0.4-2.9,0.7c-0.3,0.1-0.5,0.4-0.4,0.7C133.4,68.2,133.8,68.4,134.1,68.3
				L134.1,68.3z"/>
		</g>
	</g>
	<g>
		<g>
			<path class="st4" d="M133.6,72.4c0.9,0.1,1.7,0.2,2.6,0.3c0.4,0,0.9,0.1,1.3,0.1c0.4,0,0.9,0.1,1.3,0c0.2,0,0.4-0.3,0.4-0.5
				c0-0.2-0.2-0.4-0.4-0.5c-0.2-0.1-0.5-0.1-0.7-0.1c-0.2,0-0.4,0-0.6-0.1c-0.4,0-0.9-0.1-1.3-0.1c-0.9-0.1-1.7-0.1-2.6-0.2
				c-0.3,0-0.5,0.3-0.5,0.5C133.1,72.2,133.4,72.4,133.6,72.4L133.6,72.4z"/>
		</g>
	</g>
	<g>
		<g>
			<path class="st4" d="M132.6,75.4c0.7,0.6,1.4,1.3,2,2c0.3,0.3,0.6,0.6,0.9,0.9c0.4,0.4,0.8,0.8,1.3,1c0.2,0.1,0.6,0.1,0.7-0.1
				c0.2-0.2,0.1-0.5,0-0.7c-0.2-0.2-0.4-0.4-0.6-0.6c-0.2-0.2-0.3-0.3-0.5-0.5c-0.3-0.3-0.6-0.6-0.9-0.9c-0.7-0.7-1.3-1.3-2-1.9
				c-0.2-0.2-0.6-0.2-0.8,0C132.4,74.8,132.4,75.2,132.6,75.4L132.6,75.4z"/>
		</g>
	</g>
	<g>
		<g>
			<g>
				<path class="st4" d="M69.8,60.9c-0.9-0.4-1.8-0.8-2.7-1.2c-0.9-0.4-1.8-0.8-2.8-1.1c-0.6-0.2-1,0.7-0.4,1
					c0.9,0.5,1.8,0.8,2.7,1.2c0.9,0.4,1.8,0.8,2.8,1.2c0.3,0.1,0.6-0.1,0.7-0.4C70.2,61.4,70.1,61.1,69.8,60.9L69.8,60.9z"/>
			</g>
		</g>
		<g>
			<g>
				<path class="st4" d="M69.1,65.1c-0.9-0.1-1.8-0.2-2.6-0.3c-0.4,0-0.8-0.1-1.3-0.1c-0.4-0.1-0.9-0.1-1.4-0.1
					c-0.2,0-0.4,0.3-0.4,0.5c0,0.2,0.2,0.4,0.4,0.5c0.2,0.1,0.5,0.1,0.7,0.1c0.2,0,0.4,0.1,0.6,0.1c0.4,0,0.8,0.1,1.3,0.1
					c0.8,0.1,1.7,0.1,2.5,0.2C69.6,66.2,69.7,65.2,69.1,65.1L69.1,65.1z"/>
			</g>
		</g>
		<g>
			<g>
				<path class="st4" d="M68.7,68.3c-0.8,0.4-1.6,0.9-2.4,1.5c-0.3,0.2-0.7,0.5-1,0.7c-0.5,0.3-0.9,0.6-1.4,0.9
					c-0.4,0.4,0,1.1,0.5,0.9c0.5-0.2,1-0.5,1.4-0.8c0.4-0.2,0.7-0.5,1.1-0.7c0.8-0.5,1.5-1.1,2.4-1.5C69.9,68.9,69.4,67.9,68.7,68.3
					L68.7,68.3z"/>
			</g>
		</g>
	</g>
	<g>
		<g>
			<path class="st4" d="M135.5,37c-2.2,1.1-2.7,4.2-3.2,6.3c-0.7,2.8-1,5.7-1.2,8.6c0,0.7,1,0.7,1,0c0.2-2.6,0.7-5.2,1.3-7.7
				c0.3-1.2,0.6-2.4,1-3.6c0.3-1,0.7-2.1,1.6-2.7C136.5,37.5,136.1,36.7,135.5,37L135.5,37z"/>
		</g>
	</g>
	<g>
		<g>
			<path class="st4" d="M132.7,46.8c0.6-0.4,1.3-0.7,2-1c0.6-0.3,1.3-0.5,2-0.7c0.2-0.1,0.4-0.3,0.4-0.6c0-0.2-0.2-0.5-0.5-0.4
				c-1.6,0.2-3.2,0.9-4.5,1.9C131.6,46.4,132.2,47.1,132.7,46.8L132.7,46.8z"/>
		</g>
	</g>
	<g>
		<g>
			<g>
				<path class="st4" d="M77.9,32.2c0.8,0.8,0.9,2,1.1,3c0.1,1.3,0.2,2.5,0.3,3.8c0.1,2.6,0.1,5.2-0.2,7.8c-0.1,0.6,0.9,0.7,1,0.1
					c0.4-2.9,0.7-5.8,0.5-8.7c-0.1-2.2,0-5.3-1.9-6.8C78.2,31.1,77.5,31.7,77.9,32.2L77.9,32.2z"/>
			</g>
		</g>
		<g>
			<g>
				<path class="st4" d="M80.2,40.9c-0.5-0.6-1.1-1.1-1.8-1.6c-0.3-0.2-0.7-0.5-1-0.6c0,0-0.1,0-0.1,0c0,0-0.1,0-0.1,0
					c-0.1,0-0.2-0.1-0.3-0.1c-0.2-0.1-0.4-0.2-0.6-0.2c-0.5-0.2-0.9,0.6-0.4,0.9c0.3,0.2,0.7,0.3,0.9,0.5c0.3,0.2,0.7,0.4,1,0.6
					c0.3,0.2,0.5,0.4,0.8,0.6c0.3,0.2,0.6,0.5,0.9,0.7c0.2,0.2,0.5,0.2,0.7,0C80.4,41.4,80.4,41.1,80.2,40.9L80.2,40.9z"/>
			</g>
		</g>
	</g>
	<g>
		<g>
			<path class="st4" d="M99.8,95.2c-0.1,0.7-0.2,1.4-0.3,2.1c-0.1,0.7-0.1,1.4,0,2.1c0,0.3,0.3,0.4,0.6,0.4c0.3,0,0.4-0.3,0.5-0.5
				c0.1-0.6,0-1.3,0-1.9c0-0.6,0.1-1.2,0.2-1.8c0-0.3-0.1-0.6-0.4-0.6C100.2,94.8,99.8,95,99.8,95.2L99.8,95.2z"/>
		</g>
	</g>
	<g>
		<g>
			<path class="st4" d="M93.4,101.3c0,0.8,0,1.7,0.1,2.5c0.1,0.8,0.3,1.7,0.6,2.5c0.2,0.6,1.1,0.4,1-0.3c-0.4-1.6-0.6-3.2-0.5-4.8
				C94.5,100.5,93.4,100.5,93.4,101.3L93.4,101.3z"/>
		</g>
	</g>
	<g>
		<g>
			<path class="st4" d="M104.2,103.5c-0.1,0.4-0.2,0.9-0.4,1.3c0,0-0.1,0.2,0,0.1c0,0,0,0.1-0.1,0.1c0,0.1-0.1,0.2-0.2,0.3
				c-0.1,0.2-0.2,0.5-0.3,0.7c-0.1,0.2,0,0.5,0.2,0.6c0.2,0.1,0.5,0.1,0.6-0.1c0.3-0.4,0.5-0.9,0.7-1.4c0.2-0.4,0.3-0.9,0.4-1.3
				c0.1-0.3-0.1-0.6-0.4-0.6C104.6,103.1,104.3,103.2,104.2,103.5L104.2,103.5z"/>
		</g>
	</g>
	<g>
		<g>
			<path class="st4" d="M125.9,94.6c-0.1,0.5-0.2,0.9-0.4,1.4c0,0.1,0,0.1-0.1,0.2c0.1-0.1,0,0.1,0,0.1c0,0.1-0.1,0.2-0.2,0.3
				c-0.1,0.3-0.3,0.5-0.4,0.8c-0.1,0.2,0.1,0.5,0.3,0.7c0.2,0.1,0.5,0.1,0.7-0.1c0.2-0.2,0.3-0.5,0.5-0.7c0.1-0.3,0.2-0.5,0.3-0.8
				c0.2-0.5,0.3-1.1,0.3-1.6c0-0.3-0.2-0.5-0.5-0.5C126.2,94.2,125.9,94.4,125.9,94.6L125.9,94.6z"/>
		</g>
	</g>
	<g>
		<g>
			<path class="st4" d="M129,100.7c-0.3,0.6-0.7,1.3-1.1,1.9c-0.1,0.2-0.2,0.3-0.3,0.5c0,0-0.1,0.1-0.1,0.1c0-0.1,0,0,0,0
				c-0.1,0.1-0.1,0.2-0.2,0.2c0,0.1-0.1,0.1-0.1,0.2c-0.1,0.1,0.1-0.1,0,0c-0.1,0.1-0.1,0.2-0.2,0.2c-0.1,0.2-0.3,0.3-0.4,0.5
				c-0.3,0.5,0.3,1.2,0.8,0.8c0.3-0.2,0.6-0.6,0.9-0.9c0.3-0.3,0.5-0.7,0.8-1.1c0.4-0.7,0.7-1.5,1-2.3c0.1-0.3-0.1-0.6-0.4-0.7
				C129.3,100.2,129.1,100.4,129,100.7L129,100.7z"/>
		</g>
	</g>
	<g>
		<g>
			<path class="st4" d="M60.8,88.2c-0.1,0.7-0.1,1.4,0.1,2.1c0.1,0.3,0.2,0.7,0.3,1c0.1,0.2,0.2,0.4,0.2,0.6
				c0.1,0.2,0.2,0.3,0.3,0.5c0.3,0.4,1.1,0,0.9-0.5c-0.2-0.6-0.5-1.2-0.6-1.8c-0.1-0.6-0.2-1.1-0.1-1.8c0-0.3-0.3-0.5-0.5-0.5
				C61,87.7,60.8,87.9,60.8,88.2L60.8,88.2z"/>
		</g>
	</g>
	<g>
		<g>
			<path class="st4" d="M66.9,96.8c0.1,0.6,0.3,1.2,0.6,1.8c0.3,0.6,0.7,1.2,1.3,1.5c0.2,0.1,0.5,0.1,0.7-0.1c0.2-0.2,0.1-0.5,0-0.7
				c-0.2-0.2-0.4-0.4-0.6-0.6c-0.1-0.1,0,0.1,0,0c0,0,0-0.1-0.1-0.1c0-0.1-0.1-0.1-0.1-0.2c-0.1-0.1-0.2-0.2-0.2-0.4
				c-0.1-0.1-0.1-0.2-0.2-0.4c0,0,0-0.1,0-0.1c0,0-0.1-0.1,0,0c0-0.1,0-0.1-0.1-0.2c-0.1-0.3-0.2-0.6-0.2-0.8
				c-0.1-0.3-0.4-0.5-0.7-0.4C67,96.2,66.9,96.5,66.9,96.8L66.9,96.8z"/>
		</g>
	</g>
	<g>
		<g>
			<path class="st4" d="M150.2,77.6c0.1,1.4-0.2,2.8-0.8,4.1c-0.1,0.3-0.1,0.6,0.2,0.8c0.3,0.2,0.6,0.1,0.8-0.2
				c0.8-1.4,1.1-3.1,0.9-4.7c0-0.3-0.2-0.5-0.5-0.5C150.5,77.1,150.2,77.3,150.2,77.6L150.2,77.6z"/>
		</g>
	</g>
	<g>
		<g>
			<path class="st4" d="M144.7,96.2c-0.4,0.4-0.7,0.9-1.1,1.4c-0.3,0.4-0.7,0.9-1,1.3c-0.1,0.2-0.1,0.5,0.1,0.7
				c0.2,0.1,0.5,0.2,0.7,0c0.4-0.4,0.7-0.9,1-1.4c0.3-0.4,0.6-0.9,0.9-1.3c0.1-0.2,0.1-0.5-0.1-0.6C145.1,96.1,144.8,96,144.7,96.2
				L144.7,96.2z"/>
		</g>
	</g>
</g>
</svg>
