<?xml version="1.0" encoding="utf-8"?>
<!-- Generator: Adobe Illustrator 24.1.2, SVG Export Plug-In . SVG Version: 6.00 Build 0)  -->
<svg version="1.1" id="Layer_1" xmlns="http://www.w3.org/2000/svg" xmlns:xlink="http://www.w3.org/1999/xlink" x="0px" y="0px"
	 width="200px" height="140px" viewBox="0 0 200 140" style="enable-background:new 0 0 200 140;" xml:space="preserve">
<style type="text/css">
	.st0{fill:#CA78F8;stroke:#540E8B;stroke-width:1.0764;stroke-miterlimit:10;}
	.st1{fill:url(#SVGID_1_);stroke:#540E8B;stroke-width:1.0764;stroke-miterlimit:10;}
	.st2{fill:url(#SVGID_2_);stroke:#540E8B;stroke-width:1.0764;stroke-miterlimit:10;}
	.st3{fill:#FD99D7;stroke:#540E8B;stroke-width:1.0764;stroke-miterlimit:10;}
	.st4{fill:url(#SVGID_3_);stroke:#540E8B;stroke-width:1.0764;stroke-miterlimit:10;}
	.st5{fill:#FDF7AB;stroke:#540E8B;stroke-width:1.0764;stroke-miterlimit:10;}
	.st6{fill:#540E8B;}
	.st7{fill:#95E7FC;stroke:#540E8B;stroke-width:1.0764;stroke-miterlimit:10;}
	.st8{fill:url(#SVGID_4_);stroke:#540E8B;stroke-width:1.0764;stroke-miterlimit:10;}
	.st9{fill:#FFFFFF;}
</style>
<g>
	<path class="st0" d="M62.4,100.8L52,97.3l-5,24.4c-0.1,0-0.3,0-0.4,0c-2,0-3.6,1.7-3.6,3.7s1.7,3.6,3.7,3.6s3.6-1.7,3.6-3.7
		c0-1.2-0.6-2.3-1.6-2.9L62.4,100.8z"/>
	
		<linearGradient id="SVGID_1_" gradientUnits="userSpaceOnUse" x1="72.7516" y1="45.2905" x2="58.0724" y2="21.8038" gradientTransform="matrix(0.9925 -0.1221 -0.1221 -0.9925 -9.4492 152.8263)">
		<stop  offset="7.117440e-03" style="stop-color:#540E8B"/>
		<stop  offset="1" style="stop-color:#95E7FC;stop-opacity:0"/>
	</linearGradient>
	<path class="st1" d="M62.4,100.8L52,97.3l-5,24.4c-0.1,0-0.3,0-0.4,0c-2,0-3.6,1.7-3.6,3.7s1.7,3.6,3.7,3.6s3.6-1.7,3.6-3.7
		c0-1.2-0.6-2.3-1.6-2.9L62.4,100.8z"/>
	<path class="st0" d="M143.7,90.8l9.2-5.9l10.8,22.4c0.1,0,0.3-0.1,0.4-0.1c2-0.5,3.9,0.8,4.4,2.7c0.5,2-0.8,3.9-2.7,4.4
		c-2,0.5-3.9-0.8-4.4-2.7c-0.3-1.2,0.1-2.4,0.8-3.2L143.7,90.8z"/>
	
		<linearGradient id="SVGID_2_" gradientUnits="userSpaceOnUse" x1="163.0674" y1="50.4749" x2="179.2145" y2="11.5751" gradientTransform="matrix(0.9925 -0.1221 -0.1221 -0.9925 -9.4492 152.8263)">
		<stop  offset="7.117440e-03" style="stop-color:#540E8B"/>
		<stop  offset="1" style="stop-color:#95E7FC;stop-opacity:0"/>
	</linearGradient>
	<path class="st2" d="M143.7,90.8l9.2-5.9l10.8,22.4c0.1,0,0.3-0.1,0.4-0.1c2-0.5,3.9,0.8,4.4,2.7c0.5,2-0.8,3.9-2.7,4.4
		c-2,0.5-3.9-0.8-4.4-2.7c-0.3-1.2,0.1-2.4,0.8-3.2L143.7,90.8z"/>
	<path class="st3" d="M63,50c0,0-19.8,1-34.3,45.6c0,0,21.3,16.6,74.4,10.1c53.2-6.5,71.5-31.7,71.5-31.7s-23.4-34.1-43.9-32.3
		L63,50z"/>
	
		<linearGradient id="SVGID_3_" gradientUnits="userSpaceOnUse" x1="118.5762" y1="103.4645" x2="118.5762" y2="44.7468" gradientTransform="matrix(0.9925 -0.1221 -0.1221 -0.9925 -9.4492 152.8263)">
		<stop  offset="7.117440e-03" style="stop-color:#FDF7AB"/>
		<stop  offset="0.9964" style="stop-color:#FDF7AB;stop-opacity:0"/>
	</linearGradient>
	<path class="st4" d="M63,50c0,0-19.8,1-34.3,45.6c0,0,21.3,16.6,74.4,10.1c53.2-6.5,71.5-31.7,71.5-31.7s-23.4-34.1-43.9-32.3
		L63,50z"/>
	<polygon class="st5" points="139.4,34.7 141.9,28.5 145.9,33.9 143.4,40.2 	"/>
	<polygon class="st5" points="32.8,63.6 35.4,57.4 39.4,62.9 36.8,69.1 	"/>
	<polygon class="st5" points="131.9,28.4 133.7,24 136.6,27.9 134.7,32.3 	"/>
	<polygon class="st5" points="42,73.1 43.8,68.6 46.7,72.5 44.8,76.9 	"/>
	<g>
		<g>
			<path class="st6" d="M78.6,52.7c-3.7,5.3-6.6,11.2-9,17.1c-3,7.2-5.4,14.6-7.3,22.1c-1.1,4.6-2,9.1-2.9,13.8
				c-0.1,0.6,0.9,0.9,0.9,0.3c1.1-7.9,3.2-15.8,5.6-23.5c2.2-7,4.8-13.8,8.1-20.4c1.6-3.1,3.3-6.2,5.1-9.1
				C79.5,52.7,78.9,52.3,78.6,52.7L78.6,52.7z"/>
		</g>
	</g>
	<g>
		<g>
			<path class="st6" d="M116.8,47.7c10,9.6,18,21,24.6,33.2c2.2,4,4.3,8.2,6,12.4c0.3,0.7,1.2,0.3,0.9-0.4
				c-6.2-13.7-13.6-26.9-23.5-38.3c-2.3-2.7-4.7-5.2-7.4-7.5C117,46.9,116.5,47.4,116.8,47.7L116.8,47.7z"/>
		</g>
	</g>
	<g>
		<g>
			<path class="st6" d="M97,52.1c0.4,4.3,1.2,8.7,1.8,13c0.6,4.7,1.3,9.3,1.8,14c0.6,4.5,1.1,9.1,1.7,13.6c0.6,4.3,1,8.7,1.8,13
				c0.1,0.5,1,0.4,0.9-0.1c-0.4-4.5-1.2-8.9-1.8-13.3c-0.6-4.5-1.2-9.1-1.8-13.6c-0.6-4.4-1.1-8.9-1.7-13.3s-1.1-8.9-2-13.3
				C97.6,51.6,96.9,51.7,97,52.1L97,52.1z"/>
		</g>
	</g>
	<g>
		<g>
			<path class="st6" d="M58.9,65.8c0.4-0.9,0.8-1.7,1.3-2.5c0.5-0.8,1-1.6,1.5-2.4c0.2-0.4-0.3-0.8-0.6-0.5
				c-1.4,1.4-2.3,3.4-2.9,5.2c-0.1,0.2,0.1,0.4,0.3,0.5C58.7,66.1,58.8,66,58.9,65.8L58.9,65.8z"/>
		</g>
	</g>
	<g>
		<g>
			<path class="st6" d="M60.5,70.1c0.5-0.9,0.9-1.8,1.3-2.8c0.1-0.2-0.1-0.4-0.2-0.5c-0.2-0.1-0.4,0-0.5,0.2
				c-0.5,0.9-0.8,1.9-1.2,2.8C59.8,70.2,60.3,70.4,60.5,70.1L60.5,70.1z"/>
		</g>
	</g>
	<g>
		<g>
			<path class="st6" d="M79.2,91.5c-0.4,0.9-0.7,1.9-0.8,2.8c-0.2,1-0.3,2-0.2,3c0.1,0.5,0.8,0.5,0.8,0c0.1-0.9,0.1-1.9,0.3-2.8
				c0.2-0.9,0.4-1.9,0.7-2.8C80.1,91.2,79.4,91.1,79.2,91.5L79.2,91.5z"/>
		</g>
	</g>
	<g>
		<g>
			<path class="st6" d="M84,97.3c-0.1,1.1-0.4,2.2-0.3,3.4c0,0.2,0.1,0.4,0.3,0.4c0.2,0,0.4-0.1,0.4-0.3c0.1-0.6,0.2-1.2,0.2-1.8
				c0-0.6,0-1.1,0.1-1.7c0-0.2-0.2-0.4-0.4-0.4C84.1,96.9,84,97.1,84,97.3L84,97.3z"/>
		</g>
	</g>
	<g>
		<g>
			<path class="st6" d="M116.7,63.8c0.4,1,0.7,2.1,1,3.2c0.1,0.5,0.2,1.1,0.3,1.6c0.1,0.5,0.1,1.1,0.3,1.6c0.2,0.5,0.8,0.3,0.8-0.1
				c0.1-0.6-0.1-1.2-0.2-1.8c-0.1-0.5-0.2-1.1-0.4-1.6c-0.3-1.1-0.7-2.2-1.2-3.2C117.3,63.1,116.6,63.4,116.7,63.8L116.7,63.8z"/>
		</g>
	</g>
	<g>
		<g>
			<path class="st6" d="M154.7,58.4c0.7,0.5,1.3,1,1.9,1.6c0.6,0.6,1.2,1.3,1.7,1.9c0.3,0.3,0.8-0.1,0.6-0.5c-0.4-0.8-1-1.5-1.7-2.1
				s-1.4-1.2-2.2-1.6C154.7,57.4,154.3,58.1,154.7,58.4L154.7,58.4z"/>
		</g>
	</g>
	<g>
		<g>
			<path class="st6" d="M160.9,65c0.4,0.4,0.8,0.8,1.1,1.3c0.2,0.2,0.3,0.5,0.5,0.7c0.1,0.3,0.3,0.5,0.4,0.8
				c0.2,0.4,0.8,0.1,0.7-0.3c-0.1-0.3-0.2-0.6-0.4-0.9c-0.1-0.3-0.3-0.5-0.5-0.8c-0.4-0.5-0.8-1-1.3-1.4c-0.2-0.1-0.4-0.2-0.5,0
				C160.8,64.6,160.8,64.8,160.9,65L160.9,65z"/>
		</g>
	</g>
	<g>
		<g>
			<path class="st6" d="M156.9,64.6c0,0.1,0.1,0.1,0.1,0.2c0,0,0.1,0.1,0,0l0.1,0.1c0.1,0.1,0.2,0.2,0.3,0.3c0,0,0,0.1,0,0
				c0,0,0,0.1,0.1,0.1c0,0.1,0.1,0.1,0.1,0.2c0.1,0.1,0.2,0.2,0.2,0.3c0.3,0.5,0.6,0.9,0.8,1.4c0.1,0.2,0.3,0.2,0.5,0.2
				c0.2-0.1,0.3-0.3,0.2-0.4c0-0.1-0.1-0.3-0.1-0.4c-0.1-0.1-0.1-0.3-0.1-0.4c-0.1-0.3-0.3-0.6-0.4-0.8c-0.3-0.5-0.7-0.9-1.2-1.3
				c-0.2-0.1-0.4-0.2-0.6,0C156.8,64.2,156.8,64.4,156.9,64.6L156.9,64.6z"/>
		</g>
	</g>
	<g>
		<g>
			<path class="st6" d="M32.8,93.1c0.1-0.6,0.3-1.2,0.5-1.7c0.3-0.6,0.6-1.1,0.8-1.7c0.1-0.2,0.1-0.4-0.1-0.5
				c-0.1-0.1-0.4-0.1-0.5,0c-0.5,0.5-0.8,1.1-1.1,1.8c-0.2,0.6-0.4,1.3-0.5,2C32,93.4,32.7,93.5,32.8,93.1L32.8,93.1z"/>
		</g>
	</g>
	<g>
		<g>
			<path class="st6" d="M35.7,86.2c0.2-0.3,0.4-0.7,0.6-1c0.1-0.2,0.2-0.3,0.3-0.5s0.2-0.4,0.3-0.6c0-0.2,0-0.3-0.2-0.4
				c-0.1-0.1-0.3-0.1-0.4,0.1c-0.1,0.2-0.2,0.4-0.4,0.6c-0.1,0.2-0.2,0.3-0.3,0.5c-0.2,0.4-0.4,0.7-0.5,1.1c-0.1,0-0.1,0.2,0.1,0.3
				C35.4,86.4,35.6,86.4,35.7,86.2L35.7,86.2z"/>
		</g>
	</g>
	<g>
		<g>
			<path class="st6" d="M123.1,72.2c0.1,0.4,0.1,0.9,0.2,1.3c0,0.2,0.1,0.4,0.1,0.6s0,0.5,0.1,0.7c0.1,0.4,0.7,0.3,0.7-0.1
				c0-0.2,0-0.4-0.1-0.6c0-0.2-0.1-0.4-0.1-0.6c-0.1-0.4-0.1-0.8-0.2-1.3c0-0.2-0.2-0.4-0.4-0.4C123.2,71.8,123,72,123.1,72.2
				L123.1,72.2z"/>
		</g>
	</g>
	<g>
		<g>
			<path class="st6" d="M51,108.8c-0.2,0.6-0.5,1.3-0.7,1.9c0,0.2,0,0.3,0.2,0.4c0.1,0.1,0.4,0,0.4-0.1c0.3-0.7,0.5-1.3,0.8-2
				c0.1-0.2-0.1-0.4-0.3-0.5C51.2,108.5,51.1,108.6,51,108.8L51,108.8z"/>
		</g>
	</g>
	<g>
		<g>
			<path class="st6" d="M51.9,112c-0.2,0.5-0.4,0.9-0.6,1.4c-0.2,0.5-0.4,1-0.6,1.5c-0.1,0.4,0.5,0.7,0.7,0.3c0.3-0.5,0.4-1,0.6-1.5
				c0.2-0.5,0.4-1,0.6-1.5c0.1-0.2-0.1-0.4-0.3-0.5C52.2,111.7,52,111.8,51.9,112L51.9,112z"/>
		</g>
	</g>
	<g>
		<g>
			<path class="st6" d="M152.6,96.1c0.1,0.2,0.2,0.4,0.3,0.6s0.2,0.4,0.3,0.5c0.1,0.2,0.2,0.3,0.3,0.5s0.3,0.4,0.5,0.6
				c0.2,0.1,0.4,0.2,0.6,0.1c0.2-0.1,0.3-0.3,0.2-0.5c0-0.1-0.1-0.3-0.2-0.4c-0.1-0.1-0.1-0.2-0.2-0.3c-0.1-0.2-0.2-0.3-0.3-0.5
				c-0.1-0.1-0.1-0.2-0.2-0.2l-0.1-0.1l-0.1-0.1l0,0c-0.1-0.2-0.3-0.4-0.4-0.6c-0.1-0.2-0.4-0.2-0.6,0
				C152.5,95.7,152.5,95.9,152.6,96.1L152.6,96.1z"/>
		</g>
	</g>
	<g>
		<g>
			<path class="st6" d="M157.6,99.9c0.2,0.4,0.4,0.7,0.6,1.1c0.1,0.2,0.2,0.4,0.3,0.5s0.1,0.2,0.2,0.3l0.1,0.1
				c0.1,0.1,0.1,0.1,0.2,0.2c0.1,0.1,0.3,0,0.4,0c0.1-0.1,0.1-0.2,0.1-0.4c0-0.1-0.1-0.2-0.2-0.3c0-0.1-0.1-0.2-0.1-0.3
				c-0.1-0.2-0.2-0.4-0.3-0.5c-0.2-0.4-0.4-0.7-0.7-1.1c-0.1-0.2-0.3-0.2-0.5-0.1C157.6,99.5,157.5,99.7,157.6,99.9L157.6,99.9z"/>
		</g>
	</g>
	<path class="st7" d="M130.8,41.7C128.6,24,111.7,11.5,93,13.8C74.2,16.1,60.8,32.3,63,50c0,0,10.9,4.6,33.5,1.8
		S130.8,41.7,130.8,41.7z"/>
	
		<linearGradient id="SVGID_4_" gradientUnits="userSpaceOnUse" x1="118.6176" y1="135.0247" x2="118.6176" y2="87.3159" gradientTransform="matrix(0.9925 -0.1221 -0.1221 -0.9925 -9.4492 152.8263)">
		<stop  offset="3.558720e-03" style="stop-color:#FD99D7"/>
		<stop  offset="0.9964" style="stop-color:#FDF7AB;stop-opacity:0"/>
	</linearGradient>
	<path class="st8" d="M130.8,41.7C128.6,24,111.7,11.5,93,13.8C74.2,16.1,60.8,32.3,63,50c0,0,10.9,4.6,33.5,1.8
		S130.8,41.7,130.8,41.7z"/>
	<path class="st9" d="M76.6,34.9c-4.5-3.1-1-10.1,6.3-13.8s14.8-1.6,14.9,3.1c0,2.9-1.9,4.1-4.2,4.6c-4.1,0.8-7.9,2.9-11.1,5.6
		C80.8,35.6,78.7,36.3,76.6,34.9z"/>
	<path class="st9" d="M75.7,37.6c-1-0.5-2.3,0-2.8,1.2c-0.5,1.1-0.1,2.5,0.9,2.9c1,0.5,2.3,0,2.8-1.2C77.1,39.4,76.7,38.1,75.7,37.6
		z"/>
	<g>
		<g>
			<path class="st6" d="M112.8,20.2c1.1,0.3,2.1,0.8,3,1.5c0.1,0.1,0.4,0,0.5-0.1s0.1-0.4,0-0.5c-0.9-0.9-2-1.4-3.2-1.6
				c-0.2,0-0.4,0.1-0.5,0.3C112.5,20,112.6,20.2,112.8,20.2L112.8,20.2z"/>
		</g>
	</g>
	<g>
		<g>
			<path class="st6" d="M117.4,22.9c0.2,0.2,0.4,0.5,0.6,0.7c0.1,0.1,0.2,0.2,0.3,0.3c0.1,0.1,0.3,0.3,0.4,0.4s0.3,0.1,0.4-0.1
				c0.1-0.1,0.1-0.3,0.1-0.4c-0.1-0.1-0.2-0.3-0.3-0.4c-0.1-0.1-0.2-0.2-0.3-0.3c-0.2-0.2-0.5-0.4-0.7-0.6c-0.1-0.1-0.4-0.2-0.5,0
				C117.3,22.5,117.3,22.7,117.4,22.9L117.4,22.9z"/>
		</g>
	</g>
	<g>
		<g>
			<path class="st6" d="M114.2,23.6c0.1,0.1,0.3,0.3,0.4,0.4s0.2,0.1,0.2,0.2c0.1,0.1,0.1,0.1,0.2,0.1c0.1,0.1,0.2,0.1,0.3,0
				c0.1,0,0.2-0.1,0.2-0.1c0.1-0.2,0.1-0.4,0-0.5s-0.1-0.1-0.2-0.2s-0.2-0.1-0.2-0.2c-0.2-0.1-0.3-0.2-0.5-0.3
				c-0.1-0.1-0.2-0.1-0.3,0c-0.1,0-0.2,0.1-0.2,0.1c-0.1,0.1-0.1,0.2-0.1,0.2C114.1,23.5,114.1,23.6,114.2,23.6L114.2,23.6z"/>
		</g>
	</g>
	<g>
		<g>
			<path class="st6" d="M64.9,45c0-1,0.1-2,0.3-3c0.2-1,0.4-2,0.7-3c0.1-0.4-0.5-0.7-0.7-0.3c-0.9,1.9-1.3,4.2-1.1,6.3
				C64.3,45.5,64.9,45.5,64.9,45L64.9,45z"/>
		</g>
	</g>
	<g>
		<g>
			<path class="st6" d="M66.7,36.8c0.2-0.4,0.3-0.8,0.5-1.2c0.1-0.2,0.2-0.4,0.2-0.6c0.1-0.2,0.2-0.4,0.2-0.6
				c0.1-0.4-0.4-0.6-0.6-0.3c-0.1,0.2-0.2,0.4-0.3,0.6c-0.1,0.2-0.2,0.4-0.2,0.6c-0.2,0.4-0.3,0.8-0.5,1.2c-0.1,0.2,0.1,0.3,0.2,0.4
				C66.4,37,66.6,36.9,66.7,36.8L66.7,36.8z"/>
		</g>
	</g>
	<g>
		<g>
			<path class="st6" d="M68.5,37c-0.2,0.7-0.4,1.3-0.5,2c0,0.2,0.1,0.3,0.3,0.3c0.2,0,0.3-0.1,0.4-0.2c0.1-0.3,0.2-0.6,0.3-0.9
				c0.1-0.3,0.2-0.6,0.2-1c0-0.2-0.1-0.4-0.3-0.5C68.7,36.7,68.5,36.8,68.5,37L68.5,37z"/>
		</g>
	</g>
</g>
</svg>
