<?xml version="1.0" encoding="utf-8"?>
<!-- Generator: Adobe Illustrator 24.1.2, SVG Export Plug-In . SVG Version: 6.00 Build 0)  -->
<svg version="1.1" id="Layer_1" xmlns="http://www.w3.org/2000/svg" xmlns:xlink="http://www.w3.org/1999/xlink" x="0px" y="0px"
	 width="100px" height="100px" viewBox="0 0 100 100" style="enable-background:new 0 0 100 100;" xml:space="preserve">
<style type="text/css">
	.st0{opacity:0.1;fill:#EDEDED;}
	.st1{opacity:0.1;fill:#FFFFFF;}
	.st2{fill:#FFFFFF;}
	.st3{fill:#6A47AF;}
	.st4{opacity:0.2;fill:#1E247E;enable-background:new    ;}
	.st5{fill:#F987D6;}
	.st6{fill:#EF9330;}
</style>
<ellipse id="Background_21_" class="st0" cx="49.7" cy="50" rx="49.7" ry="50"/>
<path class="st1" d="M36.1,23.8c0,2.7-2.2,5-4.9,5H10.9C8.8,28.8,7,27,7,24.8c0-0.1,0-0.3,0-0.4c0-0.1,0-0.2,0-0.3
	c0.3-1.6,1.5-2.9,3-3.2c0.3-0.1,0.6-0.1,0.8-0.1c0,0,0,0,0,0c0-0.2,0-0.4,0-0.7c0-0.4,0-0.7,0.1-1.1c0.5-2.5,2.7-4.4,5.3-4.4
	c0.3,0,0.7,0,1,0.1c0.8-2.3,2.5-4.2,4.8-5c0.7-0.3,1.5-0.4,2.3-0.4c0.1,0,0.3,0,0.4,0c0,0,0,0,0,0c4.3,0,7.8,3.5,7.8,7.9
	c0,0.6-0.1,1.1-0.2,1.7C34.6,19.6,36.1,21.5,36.1,23.8z"/>
<path class="st2" d="M32.6,21.4c0,2.5-2,4.5-4.5,4.5H9.6c-2,0-3.6-1.6-3.6-3.6c0-0.1,0-0.2,0-0.4c0-0.1,0-0.2,0-0.3
	c0.3-1.4,1.3-2.6,2.8-2.9c0.3,0,0.5-0.1,0.8-0.1c0,0,0,0,0,0c0-0.2,0-0.4,0-0.6c0-0.3,0-0.6,0.1-1c0.4-2.3,2.4-4,4.8-4
	c0.3,0,0.6,0,0.9,0.1c0.7-2.1,2.3-3.8,4.4-4.5c0.6-0.2,1.3-0.4,2.1-0.4c0.1,0,0.2,0,0.3,0c0,0,0,0,0,0c3.9,0,7.1,3.2,7.1,7.2
	c0,0.5,0,1-0.2,1.5C31.1,17.5,32.6,19.3,32.6,21.4z"/>
<path class="st2" d="M29.4,15.4c0,2.1-0.9,3.9-2.2,5.2"/>
<path class="st3" d="M29.9,16.6c0-0.1,0-0.2,0-0.3c0-0.2,0-0.4,0-0.6c0-0.1,0-0.2,0-0.3c0,0,0,0,0,0c0,0,0,0,0,0c0,0,0,0,0,0
	c-0.1-4.2-3.5-7.6-7.7-7.6h-0.4l0,0c-0.8,0.1-1.5,0.2-2.2,0.4c-2.1,0.7-3.8,2.4-4.6,4.4c-0.1,0-0.2,0-0.2,0c-0.1,0-0.3,0-0.4,0
	c-0.1,0-0.2,0-0.2,0.1c-2.5,0.2-4.6,2-5,4.4C9,17.4,9,17.7,9,18.1c0,0,0,0.1,0,0.1c-0.1,0-0.2,0-0.3,0.1c-1.7,0.3-2.9,1.7-3.2,3.4
	l0,0.1c0,0,0,0,0,0c0,0.1,0,0.1,0,0.2c0,0.2,0,0.3,0,0.4c0,2.3,1.9,4.2,4.1,4.2H28c2.8,0,5.1-2.3,5.1-5.1
	C33.1,19.3,31.8,17.4,29.9,16.6z M28,25.4H9.6c-1.7,0-3-1.4-3-3c0-0.1,0-0.2,0-0.3l0-0.1c0,0,0,0,0,0c0,0,0-0.1,0-0.1
	c0.2-1.2,1.1-2.1,2.3-2.4c0.2,0,0.5-0.1,0.7-0.1h0.7l-0.1-0.7c0-0.2,0-0.3,0-0.5c0-0.3,0-0.6,0.1-0.9c0.4-2.1,2.2-3.5,4.3-3.5
	c0.1,0,0.2,0,0.3,0c0.1,0,0.2,0,0.3,0c0,0,0.1,0,0.1,0c1.6,0.3,3,1.5,3.4,3.2c0.1,0.3,0.3,0.4,0.6,0.4c0,0,0.1,0,0.1,0
	c0.3-0.1,0.5-0.4,0.4-0.7c-0.4-1.8-1.7-3.2-3.4-3.8c0.7-1.7,2.1-3,3.8-3.6c0.6-0.2,1.2-0.3,1.9-0.4h0.4c3.6,0,6.5,3,6.5,6.6
	c0,1.8-0.7,3.5-2.1,4.8c-0.2,0.2-0.2,0.6,0,0.8c0.1,0.1,0.3,0.2,0.4,0.2c0.1,0,0.3-0.1,0.4-0.2c1-0.9,1.7-2,2.1-3.3
	c1.4,0.6,2.4,2.1,2.4,3.7C32,23.6,30.2,25.4,28,25.4z"/>
<path class="st1" d="M100,50c0,2.7-2.2,5-4.9,5H74.9c-2.2,0-3.9-1.8-3.9-3.9c0-0.1,0-0.3,0-0.4c0-0.1,0-0.2,0-0.3
	c0.3-1.6,1.5-2.9,3-3.2c0.3-0.1,0.6-0.1,0.8-0.1c0,0,0,0,0,0c0-0.2,0-0.4,0-0.7c0-0.4,0-0.7,0.1-1.1c0.5-2.5,2.7-4.4,5.3-4.4
	c0.3,0,0.7,0,1,0.1c0.8-2.3,2.5-4.2,4.8-5c0.7-0.3,1.5-0.4,2.3-0.4c0.1,0,0.3,0,0.4,0c0,0,0,0,0,0c4.3,0,7.8,3.5,7.8,7.9
	c0,0.6-0.1,1.1-0.2,1.7C98.5,45.8,100,47.8,100,50z"/>
<path class="st2" d="M96.3,47.8c0,2.5-2,4.5-4.5,4.5H73.3c-2,0-3.6-1.6-3.6-3.6c0-0.1,0-0.2,0-0.4c0-0.1,0-0.2,0-0.3
	c0.3-1.4,1.3-2.6,2.8-2.9c0.3,0,0.5-0.1,0.8-0.1c0,0,0,0,0,0c0-0.2,0-0.4,0-0.6c0-0.3,0-0.6,0.1-1c0.4-2.3,2.4-4,4.8-4
	c0.3,0,0.6,0,0.9,0.1c0.7-2.1,2.3-3.8,4.4-4.5c0.6-0.2,1.3-0.4,2.1-0.4c0.1,0,0.2,0,0.3,0c0,0,0,0,0,0c3.9,0,7.1,3.2,7.1,7.2
	c0,0.5,0,1-0.2,1.5C94.9,43.9,96.3,45.7,96.3,47.8z"/>
<path class="st2" d="M93.1,41.8c0,2.1-0.9,3.9-2.2,5.2"/>
<path class="st3" d="M93.6,43c0-0.1,0-0.2,0-0.3c0-0.2,0-0.4,0-0.7c0-0.1,0-0.1,0-0.2c0,0,0,0,0,0c0,0,0,0,0,0c0,0,0,0,0,0
	c-0.1-4.2-3.5-7.7-7.7-7.7h-0.4l0,0c-0.8,0.1-1.5,0.2-2.2,0.4c-2.1,0.7-3.8,2.4-4.6,4.4c-0.2,0-0.3,0-0.5,0c0,0,0,0-0.1,0
	c0,0,0,0-0.1,0c0,0-0.1,0-0.1,0c-2.5,0.1-4.7,1.9-5.2,4.4c-0.1,0.3-0.1,0.7-0.1,1.1c0,0,0,0.1,0,0.1c-0.1,0-0.2,0-0.3,0.1
	c-1.7,0.3-2.9,1.7-3.2,3.4l0,0.1c0,0,0,0,0,0c0,0.1,0,0.1,0,0.2c0,0.2,0,0.3,0,0.4c0,2.3,1.9,4.2,4.1,4.2h18.5
	c2.8,0,5.1-2.3,5.1-5.1C96.9,45.7,95.6,43.8,93.6,43z M91.8,51.7H73.3c-1.7,0-3-1.4-3-3c0-0.1,0-0.2,0-0.3l0-0.1c0,0,0,0,0,0
	c0,0,0-0.1,0-0.1c0.2-1.2,1.1-2.1,2.3-2.4c0.2,0,0.5-0.1,0.7-0.1H74L73.9,45c0-0.2,0-0.3,0-0.5c0-0.3,0-0.6,0.1-0.9
	c0.4-2,2.1-3.5,4.2-3.5c1.9,0,3.6,1.4,4,3.2c0.1,0.3,0.3,0.4,0.6,0.4c0,0,0.1,0,0.1,0c0.3-0.1,0.5-0.4,0.4-0.7
	c-0.4-1.8-1.7-3.2-3.4-3.8c0.7-1.7,2.1-3,3.8-3.6c0.6-0.2,1.2-0.3,1.9-0.4H86c3.6,0,6.5,3,6.5,6.6c0,1.8-0.7,3.5-2.1,4.8
	c-0.2,0.2-0.2,0.6,0,0.8c0.1,0.1,0.3,0.2,0.4,0.2c0.1,0,0.3-0.1,0.4-0.2c1-0.9,1.7-2.1,2.1-3.3c1.4,0.6,2.4,2.1,2.4,3.6
	C95.7,50,93.9,51.7,91.8,51.7z"/>
<path class="st3" d="M41,95.9c-0.2,0-0.3-0.1-0.4-0.2c-0.2-0.2-0.2-0.6,0-0.8l1.7-1.6L40,93c-0.2,0-0.4-0.2-0.5-0.4
	c-0.1-0.2-0.1-0.5,0.1-0.7l2.6-3.1c0.2-0.2,0.6-0.3,0.8-0.1c0.2,0.2,0.3,0.6,0.1,0.8l-2,2.4l2.6,0.2h0.6l0,0.6v0.6l-0.4,0l-2.5,2.4
	C41.3,95.8,41.2,95.9,41,95.9z"/>
<path class="st4" d="M49.8,94.5c-0.2,0-0.4-0.1-0.5-0.3l-2.1-3.2v-0.2c0-0.3,0.3-0.6,0.6-0.6l0.1,0l2.6,0.4l-1.4-2.8
	c-0.1-0.3,0-0.6,0.2-0.8c0.3-0.1,0.6,0,0.8,0.3l1.9,3.7c0.1,0.3,0.1,0.6-0.2,0.8C51.7,92,51.5,92,51.3,92L49,91.6l1.3,2
	c0.2,0.3,0.1,0.6-0.2,0.8C50,94.5,49.9,94.5,49.8,94.5z M51,91.6L51,91.6L51,91.6z"/>
<path class="st3" d="M56.2,99.1c-0.2,0-0.4-0.1-0.5-0.3l-2.1-3.2v-0.2c0-0.3,0.3-0.6,0.6-0.6l0.1,0l2.6,0.4l-1.4-2.8
	c-0.1-0.3,0-0.6,0.2-0.8c0.3-0.1,0.6,0,0.8,0.3l1.9,3.7c0.1,0.3,0.1,0.6-0.2,0.8c-0.2,0.1-0.3,0.1-0.5,0.1l-2.3-0.3l1.3,2
	c0.2,0.3,0.1,0.6-0.2,0.8C56.4,99.1,56.3,99.1,56.2,99.1z M57.3,96.2L57.3,96.2L57.3,96.2z"/>
<path id="Shadow_62_" class="st1" d="M79.3,75.9H67.6c0,0-0.9,2.9-4.1,2.7v3.4c0,1.3-1.1,2.4-2.4,2.4H44c-1.3,0-2.4-1.1-2.4-2.4
	v-3.4c-3.2,0.2-4.1-2.7-4.1-2.7H25.8c-0.3,0-0.5-0.2-0.4-0.5l0.8-5.1c0.3-2,1.2-3.8,2.4-5.4l7.9-9.4c0.7-0.8,1.1-1.9,1.1-3V39.6
	c0-5.3,1.4-10.6,4.1-15.2l5.6-9.7c2.4-4.1,8.3-4.1,10.7,0l5.6,9.7c2.7,4.6,4.1,9.8,4.1,15.2v12.9c0,1.1,0.4,2.1,1.1,3l7.9,9.4
	c1.3,1.5,2.1,3.4,2.4,5.4l0.8,5.1C79.8,75.6,79.5,75.9,79.3,75.9z"/>
<path id="Shape_10_" class="st5" d="M60.7,78.8v3.4c0,1.3-1.1,2.4-2.4,2.4H41.1c-1.3,0-2.4-1.1-2.4-2.4v-3.4H60.7z"/>
<path class="st3" d="M60.7,78.1H38.7c-0.4,0-0.7,0.3-0.7,0.7v3.4c0,1.7,1.4,3.1,3.1,3.1h17.2c1.7,0,3.1-1.4,3.1-3.1v-3.4
	C61.3,78.4,61,78.1,60.7,78.1z M58.3,83.9H41.1c-0.9,0-1.7-0.8-1.7-1.7V82h2.6c0.2,0,0.3-0.1,0.3-0.3s-0.1-0.3-0.3-0.3h-2.6v-1.9H60
	v1.9h-2.3c-0.2,0-0.3,0.1-0.3,0.3s0.1,0.3,0.3,0.3H60v0.2C60,83.1,59.2,83.9,58.3,83.9z"/>
<path id="Shape_6_" class="st2" d="M76.5,76.2H64.7c0,0-0.9,2.9-4.1,2.7H38.7c-3.2,0.2-4.1-2.7-4.1-2.7H22.9c-0.3,0-0.5-0.2-0.4-0.5
	l0.8-5.1c0.3-2,1.1-3.8,2.4-5.4l7.9-9.4c0.7-0.8,1.1-1.9,1.1-3V39.9c0-5.3,1.4-10.6,4.1-15.2l5.6-9.7c2.4-4.1,8.3-4.1,10.7,0
	l5.6,9.7c2.7,4.6,4.1,9.8,4.1,15.2v12.9c0,1.1,0.4,2.1,1.1,3l7.9,9.4c1.3,1.5,2.1,3.4,2.4,5.4l0.8,5.1
	C76.9,75.9,76.7,76.2,76.5,76.2z"/>
<ellipse id="Shape_5_" class="st6" cx="49.6" cy="56" rx="4.7" ry="4.8"/>
<path class="st3" d="M49.6,61.5c-3,0-5.4-2.4-5.4-5.4s2.4-5.4,5.4-5.4s5.4,2.4,5.4,5.4S52.6,61.5,49.6,61.5z M49.6,51.9
	c-2.2,0-4,1.8-4,4.1s1.8,4.1,4,4.1s4-1.8,4-4.1S51.9,51.9,49.6,51.9z"/>
<ellipse id="Shape_4_" class="st6" cx="49.7" cy="40.7" rx="4.7" ry="4.8"/>
<path class="st3" d="M49.7,46.2c-3,0-5.4-2.4-5.4-5.4s2.4-5.4,5.4-5.4c3,0,5.4,2.4,5.4,5.4S52.7,46.2,49.7,46.2z M49.7,36.7
	c-2.2,0-4,1.8-4,4.1s1.8,4.1,4,4.1c2.2,0,4-1.8,4-4.1S51.9,36.7,49.7,36.7z"/>
<path class="st3" d="M44.4,72.6c-0.1,0-0.1,0-0.2-0.1L40,69.2c-0.1-0.1-0.1-0.3-0.1-0.4c0.1-0.1,0.3-0.2,0.4-0.1l4.3,3.3
	c0.1,0.1,0.1,0.3,0.1,0.4C44.6,72.5,44.5,72.6,44.4,72.6z"/>
<path class="st3" d="M42.3,72.9c-0.1,0-0.1,0-0.2-0.1L40,71.3c-0.1-0.1-0.2-0.3-0.1-0.4c0.1-0.1,0.3-0.2,0.4-0.1l2.1,1.6
	c0.1,0.1,0.2,0.3,0.1,0.4C42.5,72.9,42.4,72.9,42.3,72.9z"/>
<path class="st3" d="M44.4,70.4c-0.1,0-0.1,0-0.2-0.1l-1.2-0.9c-0.1-0.1-0.2-0.3-0.1-0.4c0.1-0.1,0.3-0.2,0.4-0.1l1.2,0.9
	c0.1,0.1,0.2,0.3,0.1,0.4C44.6,70.4,44.5,70.4,44.4,70.4z"/>
<path class="st3" d="M62.1,48.7c-0.2,0-0.3-0.1-0.3-0.3v-1.3c0-0.2,0.1-0.3,0.3-0.3c0.2,0,0.3,0.1,0.3,0.3v1.3
	C62.4,48.6,62.3,48.7,62.1,48.7z"/>
<path class="st3" d="M62.1,46.4c-0.2,0-0.3-0.1-0.3-0.3v-4c0-0.2,0.1-0.3,0.3-0.3c0.2,0,0.3,0.1,0.3,0.3v4
	C62.4,46.3,62.3,46.4,62.1,46.4z"/>
<path class="st3" d="M52.7,15.3c-0.1,0-0.2,0-0.2-0.1c-0.5-0.5-1.1-0.7-1.5-0.8c-0.2,0-0.3-0.2-0.2-0.3c0-0.2,0.2-0.3,0.3-0.2
	c0.5,0.1,1.2,0.3,1.8,1c0.1,0.1,0.1,0.3,0,0.4C52.8,15.3,52.7,15.3,52.7,15.3z"/>
<path class="st3" d="M76.8,70.4c-0.3-2.1-1.2-4.1-2.6-5.7l-7.9-9.4c-0.6-0.7-0.9-1.6-0.9-2.5V39.9c0-5.4-1.4-10.8-4.2-15.5l-5.6-9.7
	c-1.3-2.2-3.5-3.4-6-3.4c-2.5,0-4.7,1.3-6,3.4l-5.6,9.7C35.4,29.1,34,34.4,34,39.9v12.9c0,0.9-0.3,1.8-0.9,2.5l-7.9,9.4
	c-1.4,1.6-2.3,3.6-2.6,5.7l-0.8,5.1c-0.1,0.3,0,0.6,0.2,0.9c0.2,0.3,0.5,0.4,0.9,0.4h11.3c0.6,1.2,2,2.8,4.6,2.7h21.9
	c0.1,0,0.3,0,0.4,0c2.3,0,3.7-1.5,4.2-2.7h11.3c0.3,0,0.6-0.1,0.9-0.4c0.2-0.3,0.3-0.6,0.2-0.9L76.8,70.4z M65.3,75.5v-7.8
	c0-0.4-0.3-0.7-0.7-0.7c-0.4,0-0.7,0.3-0.7,0.7v8.5c0,0,0,0.1,0,0.1c-0.3,0.6-1.2,2-3.2,1.9c0,0,0,0,0,0H38.7c0,0,0,0,0,0
	c-2.4,0.2-3.2-1.7-3.3-2.1v-8.3c0-0.4-0.3-0.7-0.7-0.7S34,67.3,34,67.7v7.8H23.3l0.7-4.8c0.3-1.9,1.1-3.6,2.3-5.1l7.9-9.4
	c0.8-1,1.2-2.2,1.2-3.4V39.9c0-5.2,1.4-10.3,4-14.8l5.6-9.7c1-1.7,2.8-2.8,4.8-2.8c2,0,3.8,1,4.8,2.8l5.6,9.7c2.6,4.5,4,9.6,4,14.8
	v12.9c0,1.3,0.4,2.5,1.2,3.4l7.9,9.4c1.2,1.4,2,3.2,2.3,5.1l0.7,4.8H65.3z"/>
<path class="st3" d="M64.6,65.3c0.9,0,0.9-1.4,0-1.4C63.7,63.9,63.7,65.3,64.6,65.3L64.6,65.3z"/>
<path class="st2" d="M61.5,11.5c-0.3,0-0.7-0.2-0.8-0.6c-0.1-0.4,0.1-0.9,0.5-1l1.9-0.6c0.4-0.1,0.9,0.1,1,0.5
	c0.1,0.4-0.1,0.9-0.5,1l-1.9,0.6C61.7,11.4,61.6,11.5,61.5,11.5z"/>
<path class="st2" d="M59.8,9.7c-0.2,0-0.4-0.1-0.6-0.2c-0.3-0.3-0.3-0.8,0-1.1l1.5-1.6c0.3-0.3,0.8-0.3,1.1,0c0.3,0.3,0.3,0.8,0,1.1
	l-1.5,1.6C60.3,9.7,60.1,9.7,59.8,9.7z"/>
<path class="st2" d="M57.9,8.3c0,0-0.1,0-0.1,0c-0.4-0.1-0.7-0.5-0.7-0.9l0.3-2.1c0.1-0.4,0.5-0.7,0.9-0.7c0.4,0.1,0.7,0.5,0.7,0.9
	l-0.3,2.1C58.6,8,58.3,8.3,57.9,8.3z"/>
</svg>
