<?xml version="1.0" encoding="utf-8"?>
<!-- Generator: Adobe Illustrator 24.1.2, SVG Export Plug-In . SVG Version: 6.00 Build 0)  -->
<svg version="1.1" id="Layer_1" xmlns="http://www.w3.org/2000/svg" xmlns:xlink="http://www.w3.org/1999/xlink" x="0px" y="0px"
	 width="100px" height="100px" viewBox="0 0 100 100" style="enable-background:new 0 0 100 100;" xml:space="preserve">
<style type="text/css">
	.st0{opacity:0.1;fill:#FFFFFF;enable-background:new    ;}
	.st1{opacity:0.1;fill:#D3D5E7;enable-background:new    ;}
	.st2{fill:#FFFFFF;}
	.st3{fill:#6A47AF;}
	.st4{fill:#F987D6;}
	.st5{fill:#EF9330;}
	.st6{fill:#B8ACFC;}
</style>
<ellipse id="Background_10_" class="st0" cx="49.7" cy="49.7" rx="49.6" ry="49.7"/>
<path id="Right_27_" class="st1" d="M92.7,66.6c0,2-0.4,3.9-1,5.6c-0.4,1-0.8,2-1.4,2.9c-0.5,0.8-0.9,1.6-1.4,2.4L78.5,97.7
	c-1.1,2.1-4.1,2.1-5.2,0L62.9,77.5c-0.4-0.8-0.9-1.6-1.4-2.4c-0.6-0.9-1-1.9-1.4-2.9c-0.6-1.8-1-3.7-1-5.7c0-9.3,7.6-16.9,16.9-16.8
	C85.3,49.8,92.8,57.4,92.7,66.6z"/>
<path id="Middle_29_" class="st1" d="M78.6,50.1c0,3-0.6,5.8-1.5,8.5c-0.6,1.5-1.3,3-2.1,4.4c-0.7,1.2-1.4,2.4-2,3.6L57.3,96.9
	c-1.6,3.2-6.1,3.2-7.8,0L33.9,66.6c-0.6-1.2-1.3-2.4-2-3.6c-0.8-1.4-1.5-2.9-2.1-4.4c-1-2.7-1.5-5.6-1.5-8.6
	c0-14,11.4-25.3,25.4-25.2C67.5,24.9,78.7,36.3,78.6,50.1z"/>
<path id="Left_27_" class="st1" d="M43,75.2c0,1.5-0.3,2.9-0.7,4.1c-0.3,0.8-0.6,1.5-1,2.1c-0.3,0.6-0.7,1.2-1,1.8l-7.7,14.9
	c-0.8,1.5-3,1.5-3.8,0l-7.7-14.9c-0.3-0.6-0.6-1.2-1-1.8c-0.4-0.7-0.8-1.4-1-2.1c-0.5-1.3-0.7-2.7-0.7-4.2c0-6.9,5.6-12.4,12.5-12.4
	C37.5,62.8,43,68.4,43,75.2z"/>
<path id="Shape_3_" class="st2" d="M74.9,50.1c0,3-0.6,5.8-1.5,8.5c-0.6,1.5-1.3,3-2.1,4.4c-0.7,1.2-1.4,2.4-2,3.6L53.6,96.9
	c-1.6,3.2-6.1,3.2-7.8,0L30.2,66.6c-0.6-1.2-1.3-2.4-2-3.6c-0.8-1.4-1.5-2.9-2.1-4.4c-1-2.7-1.5-5.6-1.5-8.6
	C24.6,36,36,24.7,50,24.8C63.8,24.9,75,36.3,74.9,50.1z"/>
<path class="st3" d="M49.7,100L49.7,100c-1.9,0-3.6-1.1-4.5-2.7L29.6,66.9c-0.5-1.1-1.2-2.2-2-3.6c-0.9-1.5-1.6-3-2.2-4.5
	c-1-2.8-1.5-5.8-1.5-8.8c0-7,2.7-13.5,7.6-18.4s11.3-7.5,18.2-7.5c0.1,0,0.1,0,0.2,0c14.2,0.1,25.7,11.8,25.6,26l0,0
	c0,3-0.5,5.9-1.5,8.7c-0.5,1.5-1.2,3-2.2,4.5c-0.8,1.4-1.5,2.5-2,3.6L54.2,97.2C53.3,98.9,51.6,100,49.7,100z M49.7,25.5
	c-6.5,0-12.6,2.5-17.2,7.1c-4.7,4.6-7.2,10.8-7.2,17.4c0,2.9,0.5,5.7,1.5,8.4c0.5,1.4,1.2,2.9,2,4.3s1.5,2.5,2,3.6l15.7,30.3
	c0.6,1.2,1.9,2,3.3,2c1.4,0,2.6-0.7,3.3-2l15.7-30.3c0.6-1.1,1.2-2.3,2-3.6c0.9-1.4,1.5-2.8,2-4.3c0.9-2.7,1.4-5.4,1.5-8.3
	c0.1-13.5-10.8-24.5-24.2-24.6C49.9,25.5,49.8,25.5,49.7,25.5z M74.9,50.1L74.9,50.1L74.9,50.1z"/>
<ellipse id="Dot_1_" class="st4" cx="49.7" cy="51.7" rx="12" ry="12"/>
<path class="st3" d="M49.7,64.4c-7,0-12.6-5.7-12.6-12.7S42.7,39,49.7,39s12.6,5.7,12.6,12.7S56.7,64.4,49.7,64.4z M49.7,40.4
	c-6.2,0-11.3,5.1-11.3,11.3S43.5,63,49.7,63S61,57.9,61,51.7S55.9,40.4,49.7,40.4z"/>
<path class="st3" d="M65.9,35.6c-0.1,0-0.2,0-0.3-0.1c-1.3-1.7-3-3-4.9-3.8c-0.2-0.1-0.3-0.3-0.2-0.5s0.3-0.3,0.5-0.2
	c2,0.9,3.8,2.3,5.2,4c0.1,0.2,0.1,0.4-0.1,0.5C66,35.6,65.9,35.6,65.9,35.6z"/>
<path class="st3" d="M45.8,72.9c-0.1,0-0.1,0-0.2-0.1l-1.5-1.2c-0.1-0.1-0.2-0.3-0.1-0.4c0.1-0.1,0.3-0.2,0.4-0.1l1.5,1.2
	c0.1,0.1,0.2,0.3,0.1,0.4C46,72.9,45.9,72.9,45.8,72.9z"/>
<path class="st3" d="M47.3,72.7c-0.1,0-0.1,0-0.2-0.1l-3-2.3c-0.1-0.1-0.1-0.3,0-0.4s0.3-0.1,0.4-0.1l3,2.3c0.1,0.1,0.1,0.3,0.1,0.4
	C47.5,72.6,47.4,72.7,47.3,72.7z"/>
<path class="st3" d="M47.3,71.2c-0.1,0-0.1,0-0.2-0.1l-0.8-0.6c-0.1-0.1-0.1-0.3-0.1-0.4c0.1-0.1,0.3-0.1,0.4-0.1l0.8,0.6
	c0.1,0.1,0.1,0.3,0.1,0.4C47.5,71.2,47.4,71.2,47.3,71.2z"/>
<path id="Shape_2_" class="st2" d="M39.3,75.2c0,1.5-0.3,2.9-0.7,4.1c-0.3,0.8-0.6,1.5-1,2.1c-0.3,0.6-0.7,1.2-1,1.8l-7.7,14.9
	c-0.8,1.5-3,1.5-3.8,0l-7.7-14.9c-0.3-0.6-0.6-1.2-1-1.8c-0.4-0.7-0.8-1.4-1-2.1c-0.5-1.3-0.7-2.7-0.7-4.2c0-6.9,5.6-12.4,12.5-12.4
	C33.8,62.8,39.3,68.4,39.3,75.2z"/>
<path class="st3" d="M27,99.9c-1.1,0-2-0.6-2.5-1.5l-7.7-14.9c-0.3-0.6-0.6-1.1-1-1.7c-0.4-0.7-0.8-1.4-1.1-2.3
	c-0.5-1.4-0.8-2.9-0.8-4.5c0-3.5,1.4-6.8,3.8-9.3c2.5-2.5,5.7-3.8,9.2-3.8H27c7.2,0.2,13,6.1,13,13.3c0,1.5-0.3,2.9-0.8,4.4
	c-0.3,0.8-0.7,1.6-1.1,2.3c-0.3,0.6-0.7,1.1-1,1.7l-7.7,14.9C29,99.3,28,99.9,27,99.9z M27,63.4c-3.1,0-6,1.2-8.2,3.4
	c-2.2,2.2-3.4,5.1-3.4,8.3c0,1.4,0.2,2.7,0.7,4c0.3,0.7,0.6,1.4,1,2s0.7,1.2,1,1.8l7.7,14.9c0.3,0.5,0.7,0.8,1.3,0.8
	c0.6,0,1-0.3,1.3-0.8l7.7-14.9c0.3-0.6,0.7-1.2,1-1.8c0.4-0.6,0.7-1.3,1-2c0.5-1.3,0.7-2.6,0.7-3.9l0,0C38.6,68.8,33.5,63.5,27,63.4
	L27,63.4z"/>
<ellipse id="Dot_2_" class="st5" cx="27" cy="75.9" rx="5.9" ry="5.9"/>
<path class="st3" d="M27,82.5c-3.6,0-6.6-2.9-6.6-6.6c0-3.6,2.9-6.6,6.6-6.6s6.6,2.9,6.6,6.6C33.5,79.6,30.6,82.5,27,82.5z M27,70.7
	c-2.9,0-5.2,2.3-5.2,5.2c0,2.9,2.3,5.2,5.2,5.2s5.2-2.3,5.2-5.2C32.1,73.1,29.8,70.7,27,70.7z"/>
<path class="st3" d="M34.1,68.9c-0.1,0-0.2,0-0.3-0.1c-0.6-0.8-1.4-1.4-2.4-1.9c-0.2-0.1-0.3-0.3-0.2-0.5c0.1-0.2,0.3-0.3,0.5-0.2
	c1.1,0.5,2,1.2,2.6,2.1c0.1,0.2,0.1,0.4-0.1,0.5C34.2,68.9,34.2,68.9,34.1,68.9z"/>
<path class="st3" d="M25.9,88.2h-0.1l-1.2-0.9c-0.1-0.1-0.1-0.2,0-0.3c0.1-0.1,0.2-0.1,0.3,0l1.2,0.9c0.1,0.1,0.1,0.2,0,0.3
	C26.1,88.1,26,88.2,25.9,88.2z"/>
<path class="st3" d="M27.1,87.9H27L24.6,86c-0.1-0.1-0.1-0.2,0-0.3c0.1-0.1,0.2-0.1,0.3,0l2.4,1.8c0.1,0.1,0.1,0.2,0,0.3
	C27.3,87.9,27.2,87.9,27.1,87.9z"/>
<path class="st3" d="M27.1,86.8H27l-0.7-0.5c-0.1-0.1-0.1-0.2,0-0.3c0.1-0.1,0.2-0.1,0.3,0l0.7,0.5c0.1,0.1,0.1,0.2,0,0.3
	C27.3,86.7,27.2,86.8,27.1,86.8z"/>
<path id="Shape_1_" class="st2" d="M89,66.6c0,2-0.4,3.9-1,5.6c-0.4,1-0.8,2-1.4,2.9c-0.5,0.8-0.9,1.6-1.4,2.4L74.8,97.7
	c-1.1,2.1-4.1,2.1-5.2,0L59.2,77.5c-0.4-0.8-0.9-1.6-1.4-2.4c-0.6-0.9-1-1.9-1.4-2.9c-0.6-1.8-1-3.7-1-5.7c0-9.3,7.6-16.9,16.9-16.8
	C81.6,49.8,89.1,57.4,89,66.6z"/>
<path class="st3" d="M72.2,100L72.2,100c-1.4,0-2.6-0.7-3.2-1.9L58.6,77.9c-0.4-0.8-0.8-1.6-1.3-2.4c-0.6-1-1-1.9-1.5-3
	c-0.7-2-1.1-4-1.1-6c0-4.7,1.8-9.1,5.2-12.4c3.3-3.3,7.6-5.1,12.3-5.1c0.1,0,0.1,0,0.2,0c9.6,0.1,17.4,8,17.3,17.6
	c0,2-0.4,4-1.1,5.9c-0.4,1.1-0.9,2.1-1.5,3.1c-0.4,0.7-0.9,1.5-1.3,2.4L75.4,98.1C74.8,99.3,73.6,100,72.2,100z M72.2,50.4
	c-4.3,0-8.3,1.6-11.3,4.7c-3.1,3-4.8,7.1-4.8,11.4c0,1.9,0.3,3.7,1,5.5c0.4,1,0.8,1.9,1.3,2.8c0.5,0.8,1,1.6,1.4,2.4l10.4,20.2
	c0.4,0.8,1.1,1.2,2,1.2c0.8,0,1.6-0.4,2-1.2l10.4-20.2c0.5-0.9,0.9-1.7,1.4-2.4c0.5-0.8,1-1.8,1.3-2.8c0.6-1.8,1-3.6,1-5.4l0,0
	c0-8.9-7.1-16.1-16-16.2C72.3,50.4,72.2,50.4,72.2,50.4z"/>
<ellipse id="Dot_4_" class="st6" cx="72.3" cy="67.6" rx="8" ry="8"/>
<path class="st3" d="M72.3,76.3c-4.8,0-8.6-3.9-8.6-8.7s3.9-8.7,8.6-8.7c4.8,0,8.6,3.9,8.6,8.7S77,76.3,72.3,76.3z M72.3,60.3
	c-4,0-7.3,3.3-7.3,7.3s3.3,7.3,7.3,7.3s7.3-3.3,7.3-7.3C79.5,63.6,76.3,60.3,72.3,60.3z"/>
<path class="st3" d="M82.6,57.3c-0.1,0-0.2,0-0.3-0.1c-1-1.2-2.3-2.1-3.7-2.8c-0.2-0.1-0.2-0.3-0.2-0.5c0.1-0.2,0.3-0.2,0.5-0.2
	c1.5,0.7,2.8,1.8,3.9,3c0.1,0.1,0.1,0.4,0,0.5C82.7,57.3,82.6,57.3,82.6,57.3z"/>
<path class="st3" d="M71.8,85.4c-0.1,0-0.1,0-0.2-0.1l-1.5-1.2C70,84,69.9,83.8,70,83.7s0.3-0.2,0.4-0.1l1.5,1.2
	c0.1,0.1,0.2,0.3,0.1,0.4C72,85.4,71.9,85.4,71.8,85.4z"/>
<path class="st3" d="M73.3,85.1c-0.1,0-0.1,0-0.2-0.1l-3-2.3c-0.1-0.1-0.2-0.3-0.1-0.4s0.3-0.2,0.4-0.1l3,2.3
	c0.1,0.1,0.2,0.3,0.1,0.4C73.4,85.1,73.4,85.1,73.3,85.1z"/>
<path class="st3" d="M73.3,83.7c-0.1,0-0.1,0-0.2-0.1L72.3,83c-0.1-0.1-0.1-0.3-0.1-0.4c0.1-0.1,0.3-0.1,0.4-0.1l0.8,0.6
	c0.1,0.1,0.1,0.3,0.1,0.4C73.4,83.6,73.4,83.7,73.3,83.7z"/>
<path class="st3" d="M99.3,100h-7.1c-0.4,0-0.7-0.3-0.7-0.7s0.3-0.7,0.7-0.7h7.1c0.4,0,0.7,0.3,0.7,0.7S99.7,100,99.3,100z"/>
<path class="st3" d="M89,100H63.7c-0.4,0-0.7-0.3-0.7-0.7s0.3-0.7,0.7-0.7H89c0.4,0,0.7,0.3,0.7,0.7S89.4,100,89,100z"/>
<path class="st3" d="M58.9,100H17.7c-0.4,0-0.7-0.3-0.7-0.7s0.3-0.7,0.7-0.7h41.2c0.4,0,0.7,0.3,0.7,0.7S59.3,100,58.9,100z"/>
<path class="st3" d="M14.6,100H0.7C0.3,100,0,99.7,0,99.3s0.3-0.7,0.7-0.7h13.9c0.4,0,0.7,0.3,0.7,0.7S15,100,14.6,100z"/>
<path id="Bottom_1_" class="st3" d="M11.9,61.5l-1.3-1.8l-1.9-0.9v-0.1l3.4-1.3c0,0,0.1,0,0.1,0.1L11.9,61.5
	C12,61.5,11.9,61.5,11.9,61.5z"/>
<path class="st3" d="M11.9,62c-0.2,0-0.3-0.1-0.4-0.2l-1.2-1.6l-1.8-0.9c-0.2-0.1-0.3-0.3-0.3-0.5s0.1-0.4,0.3-0.5l0,0L12,57
	c0.2-0.1,0.4,0,0.6,0.1c0.1,0.1,0.2,0.3,0.1,0.5l-0.3,3.9c0,0.2-0.2,0.4-0.4,0.5C12,62,12,62,11.9,62z M12.3,61.3L12.3,61.3
	L12.3,61.3z M9.8,58.8l1.2,0.6l0.7,0.9l0.2-2.3L9.8,58.8z M9,58.4L9,58.4L9,58.4z"/>
<path id="Top_1_" class="st3" d="M17.8,53.7L16.5,52l-1.9-1v-0.1l3.4-1.3c0,0,0.1,0,0.1,0.1L17.8,53.7
	C17.8,53.8,17.8,53.8,17.8,53.7z"/>
<path class="st3" d="M17.8,54.2c-0.2,0-0.3-0.1-0.4-0.2l-1.2-1.6l-1.8-0.9c-0.2-0.1-0.3-0.3-0.3-0.5s0.1-0.4,0.3-0.5l0,0l3.4-1.3
	c0.2-0.1,0.4,0,0.6,0.1c0.1,0.1,0.2,0.3,0.1,0.5l-0.3,3.9C18.2,53.9,18,54.1,17.8,54.2C17.9,54.2,17.8,54.2,17.8,54.2z M18.2,53.5
	L18.2,53.5L18.2,53.5z M15.6,51l1.2,0.6l0.7,0.9l0.2-2.3L15.6,51z M14.8,50.6L14.8,50.6L14.8,50.6z"/>
<path class="st2" d="M67.9,22.3c-0.3,0-0.6-0.2-0.8-0.5c-0.1-0.4,0.1-0.9,0.5-1l1.9-0.7c0.4-0.1,0.9,0.1,1,0.5s-0.1,0.9-0.5,1
	l-1.9,0.7C68.1,22.3,68,22.3,67.9,22.3z"/>
<path class="st2" d="M66.1,20.7c-0.2,0-0.4-0.1-0.5-0.2c-0.3-0.3-0.4-0.8-0.1-1.1l1.4-1.8c0.3-0.3,0.8-0.4,1.1-0.1
	c0.3,0.3,0.4,0.8,0.1,1.1l-1.4,1.8C66.6,20.6,66.4,20.7,66.1,20.7z"/>
<path class="st2" d="M64.1,19.5C64.1,19.5,64,19.5,64.1,19.5c-0.5,0-0.8-0.4-0.8-0.9l0.2-2.1c0-0.4,0.4-0.8,0.9-0.7
	c0.4,0,0.8,0.4,0.7,0.9l-0.2,2.1C64.8,19.2,64.5,19.5,64.1,19.5z"/>
</svg>
