<?xml version="1.0" encoding="utf-8"?>
<!-- Generator: Adobe Illustrator 24.1.2, SVG Export Plug-In . SVG Version: 6.00 Build 0)  -->
<svg version="1.1" id="Layer_1" xmlns="http://www.w3.org/2000/svg" xmlns:xlink="http://www.w3.org/1999/xlink" x="0px" y="0px"
	 width="100px" height="100px" viewBox="0 0 100 100" style="enable-background:new 0 0 100 100;" xml:space="preserve">
<style type="text/css">
	.st0{opacity:0.1;fill:#FFFFFF;enable-background:new    ;}
	.st1{fill:#FFFFFF;}
	.st2{fill:#6A47AF;}
	.st3{fill:#F987D6;}
</style>
<circle id="Background_16_" class="st0" cx="50" cy="50" r="50"/>
<path id="Shadow_47_" class="st0" d="M93,29.6v46.8c0,3.5-2.8,6.2-6.2,6.2H64.7c-0.5,0-1,0.2-1.4,0.6l-8.6,9.4
	c-0.4,0.4-1.1,0.4-1.5,0l-8.6-9.4c-0.3-0.4-0.9-0.6-1.4-0.6H21.1c-3.5,0-6.2-2.8-6.2-6.2V29.6c0-3.5,2.8-6.2,6.2-6.2h65.8
	C90.3,23.4,93,26.2,93,29.6z"/>
<path class="st1" d="M89.1,26.4v46.8c0,3.5-2.8,6.2-6.2,6.2H60.8c-0.5,0-1,0.2-1.4,0.6l-8.6,9.4c-0.4,0.4-1.1,0.4-1.5,0L40.7,80
	c-0.3-0.4-0.9-0.6-1.4-0.6H17.2c-3.5,0-6.2-2.8-6.2-6.2V26.4c0-3.5,2.8-6.2,6.2-6.2H83C86.3,20.2,89.1,22.9,89.1,26.4z"/>
<path class="st2" d="M50,90.4c-0.5,0-0.9-0.2-1.2-0.5l-8.6-9.4c-0.2-0.2-0.5-0.4-0.9-0.4H17.2c-3.8,0-6.9-3.1-6.9-6.9V26.4
	c0-3.8,3.1-6.9,6.9-6.9H83c3.8,0,6.9,3.1,6.9,6.9v46.8c0,3.8-3.1,6.9-6.9,6.9H60.8c-0.3,0-0.6,0.1-0.8,0.4l-8.6,9.4
	C51,90.2,50.5,90.4,50,90.4z M17.2,20.8c-3.1,0-5.5,2.5-5.5,5.5v46.8c0,3.1,2.5,5.5,5.5,5.5h22.1c0.7,0,1.4,0.3,1.9,0.8l8.6,9.4
	C49.9,89,50,89,50,89c0.1,0,0.1,0,0.2-0.1l8.6-9.4c0.5-0.5,1.1-0.8,1.9-0.8h22.1c3.1,0,5.5-2.5,5.5-5.5V26.4c0-3.1-2.5-5.5-5.5-5.5
	H17.2V20.8z"/>
<path class="st2" d="M20.6,31.1c-0.1,0-0.1,0-0.2-0.1l-1.8-1.4c-0.1-0.1-0.1-0.3,0-0.4s0.3-0.1,0.4,0l1.8,1.4c0.1,0.1,0.1,0.3,0,0.4
	C20.8,31,20.7,31.1,20.6,31.1z"/>
<path class="st2" d="M22.5,30.7c-0.1,0-0.1,0-0.2-0.1l-3.6-2.8c-0.1-0.1-0.2-0.3-0.1-0.4s0.3-0.2,0.4-0.1l3.6,2.8
	c0.1,0.1,0.2,0.3,0.1,0.4C22.6,30.7,22.6,30.7,22.5,30.7z"/>
<path class="st2" d="M22.5,29c-0.1,0-0.1,0-0.2-0.1l-1-0.8c-0.1-0.1-0.2-0.3-0.1-0.4s0.3-0.2,0.4-0.1l1,0.8c0.1,0.1,0.2,0.3,0.1,0.4
	C22.6,28.9,22.6,29,22.5,29z"/>
<path class="st2" d="M13.5,71.1c-0.2,0-0.3-0.2-0.3-0.3v-5.5c0-0.2,0.2-0.3,0.3-0.3c0.2,0,0.3,0.2,0.3,0.3v5.5
	C13.9,71,13.7,71.1,13.5,71.1z"/>
<path class="st2" d="M13.5,63.9c-0.2,0-0.3-0.2-0.3-0.3v-2.2c0-0.2,0.2-0.3,0.3-0.3c0.2,0,0.3,0.2,0.3,0.3v2.2
	C13.9,63.8,13.7,63.9,13.5,63.9z"/>
<path class="st2" d="M52.7,83.8c-0.1,0-0.2,0-0.2-0.1c-0.1-0.1-0.1-0.4,0-0.5l2.4-2.6c0.1-0.1,0.4-0.1,0.5,0s0.1,0.4,0,0.5L53,83.7
	C52.9,83.8,52.8,83.8,52.7,83.8z"/>
<path class="st2" d="M83.3,77.1c-0.2,0-0.3-0.2-0.3-0.3c0-0.2,0.2-0.3,0.3-0.3c1.2,0,2.2-1,2.2-2.2c0-0.2,0.2-0.3,0.3-0.3
	c0.2,0,0.3,0.2,0.3,0.3C86.2,75.8,84.9,77.1,83.3,77.1z"/>
<path class="st2" d="M86.4,26.3c-0.2,0-0.3-0.2-0.3-0.3c0-1.2-1-2.2-2.2-2.2c-0.2,0-0.3-0.2-0.3-0.3s0.2-0.3,0.3-0.3
	c1.6,0,2.9,1.3,2.9,2.9C86.7,26.1,86.6,26.3,86.4,26.3z"/>
<path class="st3" d="M50,72.1c-0.1,0-0.2,0-0.3-0.1C47,70.2,33.5,61,30.2,53.9c-3.4-7.1-1.4-12.1,0.8-15.1C32.4,37,36,34,41.4,34
	c0.3,0,0.7,0,1.1,0c2.9,0.2,5.5,1.9,7.1,3.2c0.1,0.1,0.3,0.2,0.4,0.2c0.2,0,0.3,0,0.4-0.2c1.6-1.3,4.2-3,7.1-3.2c0.3,0,0.7,0,1.1,0
	c5.3,0,9,3,10.4,4.8c2.2,3,4.2,8,0.8,15.1C66.5,61,53,70.2,50.3,72C50.2,72.1,50.1,72.1,50,72.1z"/>
<path class="st2" d="M50,72.8c-0.3,0-0.5-0.1-0.7-0.2C45.5,70,32.9,61.2,29.6,54.2c-3.5-7.4-1.5-12.7,0.9-15.8
	c1.4-1.9,5.3-5.1,10.9-5.1c0.4,0,0.8,0,1.1,0c3.2,0.2,5.8,2,7.5,3.4c1.7-1.4,4.4-3.1,7.5-3.4c0.4,0,0.8,0,1.1,0
	c5.6,0,9.5,3.2,10.9,5.1c2.4,3.1,4.4,8.4,0.9,15.8c-3.3,7-16,15.8-19.7,18.3C50.5,72.7,50.3,72.8,50,72.8z M41.4,34.7
	c-5,0-8.5,2.9-9.8,4.5c-2.1,2.8-4,7.6-0.7,14.4c3.2,6.7,16.3,15.8,19.2,17.7c2.9-1.9,16-11,19.2-17.7c3.2-6.8,1.4-11.6-0.7-14.4
	c-1.3-1.7-4.8-4.5-9.8-4.5c-0.3,0-0.7,0-1,0c-2.8,0.2-5.2,1.8-6.7,3c-0.2,0.2-0.6,0.3-0.9,0.3c-0.3,0-0.6-0.1-0.9-0.3
	c-1.5-1.3-3.9-2.8-6.7-3C42.1,34.7,41.7,34.7,41.4,34.7z"/>
<path class="st2" d="M58.7,34.7c5.1,0,8.6,2.9,9.8,4.5c3,4.1,3.3,9,0.7,14.4C66,60.4,52.9,69.5,50,71.4c-2.9-1.9-16-10.9-19.2-17.7
	c-2.6-5.4-2.3-10.3,0.7-14.4c1.6-2.2,5.4-4.5,9.8-4.5c0.3,0,0.7,0,1,0c2.8,0.2,5.2,1.8,6.7,3c0.3,0.2,0.6,0.3,0.9,0.3
	c0.3,0,0.6-0.1,0.9-0.3c1.6-1.3,4-2.8,6.7-3C58,34.7,58.3,34.7,58.7,34.7L58.7,34.7 M58.7,33.3c-0.4,0-0.7,0-1.1,0
	c-3.1,0.2-5.7,1.9-7.5,3.4c-1.8-1.5-4.5-3.1-7.5-3.4c-0.4,0-0.7,0-1.1,0c-5.2,0-9.3,2.9-10.9,5.1c-1.8,2.4-4.8,7.7-0.9,15.8
	c3.4,7.1,16.6,16.2,19.8,18.3c0.2,0.1,0.4,0.2,0.7,0.2s0.5-0.1,0.7-0.2c3.2-2.1,16.4-11.2,19.8-18.3c3.9-8.1,0.9-13.5-0.9-15.8
	C67.9,36.2,63.9,33.3,58.7,33.3L58.7,33.3z"/>
<path class="st2" d="M66.2,39.8c-0.1,0-0.2,0-0.3-0.1c-0.6-0.8-1.9-1.8-3.7-2.2c-0.2,0-0.3-0.2-0.3-0.4s0.2-0.3,0.4-0.3
	c2,0.4,3.5,1.6,4.2,2.5c0.1,0.2,0.1,0.4-0.1,0.5C66.4,39.8,66.3,39.8,66.2,39.8z"/>
<path class="st2" d="M46.1,57.4c-0.1,0-0.1,0-0.2-0.1L44.2,56c-0.1-0.1-0.2-0.3-0.1-0.4c0.1-0.1,0.3-0.2,0.4-0.1l1.8,1.4
	c0.1,0.1,0.2,0.3,0.1,0.4C46.3,57.4,46.2,57.4,46.1,57.4z"/>
<path class="st2" d="M47.9,57.1c-0.1,0-0.1,0-0.2-0.1l-3.6-2.8c-0.1,0-0.1-0.2,0-0.3s0.3-0.1,0.4-0.1l3.6,2.8
	c0.1,0.1,0.1,0.3,0.1,0.4C48.1,57,48,57.1,47.9,57.1z"/>
<path class="st2" d="M47.9,55.3c-0.1,0-0.1,0-0.2-0.1l-1-0.7c-0.1-0.1-0.2-0.3-0.1-0.4c0.1-0.1,0.3-0.2,0.4-0.1l1,0.7
	c0.1,0.1,0.2,0.3,0.1,0.4C48.1,55.3,48,55.3,47.9,55.3z"/>
<path id="_x33_rd_11_" class="st1" d="M42.3,47.4c-0.6,0-0.6-0.7-0.6-0.7c0,0.7-0.6,0.7-0.6,0.7s0.6,0.1,0.6,0.7
	C41.7,48.1,41.8,47.4,42.3,47.4"/>
<path id="_x32_nd_12_" class="st1" d="M42.8,43.6c-1.4-0.1-1.4-1.6-1.4-1.6c0,1.7-1.5,1.6-1.5,1.6s1.5,0.1,1.5,1.6
	C41.4,45.2,41.6,43.8,42.8,43.6"/>
<path id="_x31_st_12_" class="st1" d="M40,46.4c-2.5-0.1-2.4-2.9-2.4-2.9c-0.1,3-2.6,2.9-2.6,2.9s2.6,0.2,2.6,2.8
	C37.5,49.2,37.9,46.7,40,46.4"/>
</svg>
