<?xml version="1.0" encoding="utf-8"?>
<!-- Generator: Adobe Illustrator 24.1.2, SVG Export Plug-In . SVG Version: 6.00 Build 0)  -->
<svg version="1.1" id="Layer_1" xmlns="http://www.w3.org/2000/svg" xmlns:xlink="http://www.w3.org/1999/xlink" x="0px" y="0px"
	 width="22px" height="14px" viewBox="0 0 22 14" style="enable-background:new 0 0 22 14;" xml:space="preserve">
<style type="text/css">
	.st0{fill:#FFFFFF;}
</style>
<path class="st0" d="M20.5,1.6c1,1,1.5,2.4,1.5,4.2v7.4c0,0.2-0.2,0.4-0.4,0.4H19c-0.2,0-0.4-0.2-0.4-0.4V6.5c0-1-0.3-1.8-0.8-2.4
	c-0.5-0.6-1.3-0.8-2.2-0.8c-0.9,0-1.6,0.3-2.2,0.8c-0.5,0.6-0.8,1.4-0.8,2.4v6.7c0,0.2-0.2,0.4-0.4,0.4H9.7c-0.2,0-0.4-0.2-0.4-0.4
	V6.5c0-1-0.3-1.8-0.8-2.4C8,3.6,7.3,3.3,6.4,3.3c-0.9,0-1.7,0.3-2.2,0.8C3.6,4.7,3.4,5.5,3.4,6.5v6.7c0,0.2-0.2,0.4-0.4,0.4H0.4
	c-0.2,0-0.4-0.2-0.4-0.4V0.7c0-0.2,0.2-0.4,0.4-0.4H3c0.2,0,0.4,0.2,0.4,0.4v1.2c0.4-0.6,1-1,1.7-1.3c0.7-0.3,1.4-0.5,2.2-0.5
	c1,0,2,0.2,2.8,0.7c0.7,0.4,1.2,0.8,1.6,1.4c0.1,0.2,0.5,0.2,0.6,0c0.4-0.6,0.9-1,1.6-1.4c0.8-0.5,1.7-0.7,2.7-0.7
	C18.2,0.1,19.5,0.6,20.5,1.6z"/>
</svg>
