<?xml version="1.0" encoding="utf-8"?>
<!-- Generator: Adobe Illustrator 24.1.2, SVG Export Plug-In . SVG Version: 6.00 Build 0)  -->
<svg version="1.1" id="Layer_1" xmlns="http://www.w3.org/2000/svg" xmlns:xlink="http://www.w3.org/1999/xlink" x="0px" y="0px"
	 width="178px" height="82px" viewBox="0 0 178 82" style="enable-background:new 0 0 178 82;" xml:space="preserve">
<style type="text/css">
	.st0{fill:#FFFFFF;}
</style>
<path class="st0" d="M53.4,75.9c0,1.5,0.1,2.8,0.4,4.1c0.1,1.3-0.9,2-1.9,2c-0.9,0-1.7-0.5-1.8-1.7c0-0.4,0-0.8,0-1.3
	c0-18.9,26.8-64.7,26.8-74.1c0-0.2,0-0.5-0.1-0.7c-9.2,3-33.5,45.8-36.1,50.9c-0.8,1.7-2.3,2.3-3.6,2.3c-1.3,0-2.3-0.6-2.3-1.5
	c0-0.4,0.2-0.8,0.6-1.2c1-1.1,6.1-21.5,6.1-30.7c0-1.8-0.2-3.2-0.7-3.9c-0.1-0.2-0.3-0.3-0.5-0.3c-4,0-22.4,37.7-27,41
	c-0.3,0.2-0.6,0.3-0.8,0.3c-1.2,0-1.9-2.1-1.9-3.8c0-0.2,0-0.3,0-0.5C11.2,50,21,27.5,26.4,15.4c-8.8,5.1-23.8,15-23.8,22.8
	c0,2.9,2.1,5.6,7.3,7.6c0.7,0.4,1,1,1,1.6c0,1-0.8,2-1.8,2c-0.3,0-0.6-0.1-0.9-0.2C2.3,46,0,42.4,0,38.8C0,26.3,27.6,12.6,29.9,7.7
	c0.6-0.8,1.4-1.1,2.1-1.1c1.7,0,3.4,1.8,3.4,3.1c0,0.6-0.4,1.2-1.4,1.3c-1.9,0.3-19.5,34.4-19.5,45c2.5-2.9,7-10.8,11.4-18.5
	c6-10.4,11.9-20.8,15.7-20.8c0.3,0,0.6,0.1,0.9,0.2c1.5,0.8,2.1,3.4,2.1,6.9c0,7.6-2.7,19.4-3.1,25.4C48,38.5,69.1,4.5,75.4,0.7
	C76.1,0.2,76.9,0,77.5,0c0.9,0,1.6,0.5,2.1,1.5c0.3,0.6,0.4,1.3,0.4,2.1C80.1,15.9,53.4,55,53.4,75.9z M147.7,28.4
	c1.6,0,5.1-4.3,5.5-4.6c0.4-0.4,0.6-0.9,0.6-1.5c0-1.5-1.2-3.2-2.6-3.2c-1.2,0-2.6,1.2-3.7,4.9c-0.4,1.5-0.6,2.5-0.6,3.2
	C147,28.1,147.3,28.4,147.7,28.4z M178,35.2c0,0.5-0.4,1-1.3,1.4c-2.8,1.3-5.1,2-7.3,2c-1.3,0-2.6-0.3-4-0.8
	C164,42.6,160,49,156.7,49c-0.4,0-0.8-0.1-1.2-0.3c-1.8-1-2.5-2.9-2.5-5.2c0-0.4,0-0.8,0.1-1.3c-3.3,4.2-6.4,8.9-9,8.9
	c-1,0-2-0.4-2.9-1.2c-0.7-0.6-0.9-1.5-0.9-2.6c0-2.3,1.2-5.3,2.2-8c-0.5,0.2-1,0.2-1.5,0.2c-3.4,0-6.2-3.6-7.2-8.6
	c-6,11.2-10.9,18.3-13.4,18.5c-0.1,0-0.1,0-0.2,0c-1.6,0-2.3-2.3-2.3-5.7c0-1.4,0.1-3.1,0.4-4.8c-0.5,0.1-1,0.2-1.4,0.2
	c-1.1,0-2-0.4-2.9-0.8c-3.5-1.4-5.4-5.3-7-5.3c-3.1,0-5,14.6-9.2,16.2c-0.2,0-0.4,0.1-0.6,0.1c-1,0-1.7-0.6-2-2.1c0-0.1,0-0.2,0-0.2
	c0-0.2,0-0.3,0-0.5c0-1.4,0.4-3.5,1-5.7c-3,2.8-6.8,5.8-9.9,5.8c-0.4,0-0.7,0-1.1-0.1C83.4,46,82,44.8,82,41.9c0-1,0.2-2.1,0.5-3.5
	c-2.1,2.7-6,8.1-9.4,8.1c-0.5,0-1-0.1-1.5-0.4c-1.1-0.6-1.5-1.7-1.5-3c0-5.7,8.4-16.5,14-16.5c1,0,1.8,0.3,2.6,1.1
	c0.4,0.4,0.6,0.9,0.6,1.3c0,0.9-0.9,1.7-1.9,1.7c-0.4,0-0.9-0.1-1.3-0.4c-0.2-0.1-0.4-0.2-0.6-0.2c-3.2,0-9.7,11.7-9.7,13.7
	c0,0.2,0.1,0.3,0.2,0.3c0.1,0,0.2-0.1,0.4-0.2c3.1-2.3,8.7-10.5,10.2-12c0.4-0.4,0.8-0.5,1.3-0.5c1,0,1.9,0.8,1.9,1.8
	c0,0.2-0.1,0.5-0.2,0.7c-1.9,3.8-2.5,6.8-2.5,8.7c0,1.5,0.4,2.3,1,2.3c0,0,0,0,0.1,0c2.3-0.3,8.2-3.6,11.6-9.4
	c1.1-3.3,2.1-6.1,2-6.2c0.3-0.9,1.1-1.2,2-1.2c1.1,0,2.3,0.7,2.3,1.8c0,0.2,0,0.4-0.1,0.6c-0.7-0.1-3.4,5.3-4.6,10
	c1.9-4.1,4.8-8.7,7.6-9.3c0.2,0,0.3,0,0.5,0c3.4,0,4.8,5.1,7.4,6.4c0.6,0.3,1,0.5,1.5,0.5c0.6,0,1.4-0.4,2.5-1.5
	c0.4-2.1,1-4.3,1.6-6.4c0.3-0.8,1-1.3,1.8-1.3c0.2,0,0.4,0,0.6,0.1c0.8,0.3,1.3,1,1.3,1.8c0,0.2,0,0.4-0.1,0.6
	c-0.4,0.5-0.9,1.9-1.5,3.6c0.2,0.3,0.2,0.7,0.2,1c0,0.4-0.1,0.6-0.3,0.7c-0.2,0.2-0.4,0.3-0.6,0.5c-0.8,3-1.5,6.4-1.5,8.4
	c0,1.1,0.2,1.7,0.6,1.7c0.1,0,0.2,0,0.3-0.1c1.5-0.8,5.4-8.7,11.8-23.1c0.3-0.7,1-1,1.7-1c0.9,0,1.8,0.6,1.8,1.6
	c0,0.1,0,0.3-0.1,0.4c-0.5,2-0.7,3.9-0.7,5.5c0,4.9,2,7.8,4.3,7.8c1.1,0,2.2-0.6,3.3-2c0.1-0.2,0.1-0.5,0.2-0.7
	c0.4-1.8,1.8-2.7,3-2.7c0.9,0,1.7,0.6,1.7,1.8c0,0.5-0.1,1.1-0.5,1.9c-0.9,2-4.5,8.8-4.5,11.7c0,0.5,0.1,0.9,0.3,1.1
	c0.3,0.3,0.6,0.4,1,0.4c2.3,0,6.6-6.8,9.3-11.2c1.1-3.3,3.1-6.3,4.8-7c0-0.2-0.1-0.4-0.1-0.6c0-2,2.2-3.7,4.2-3.7
	c1.8,0,3.6,1.4,3.6,5.1c0,1.1-0.1,2.4-0.5,3.9c1.1,0.6,2.2,0.9,3.5,0.9c1.7,0,3.8-0.6,6.4-2.2c0.5-0.3,0.9-0.4,1.2-0.4
	C177.7,34.4,178,34.7,178,35.2z M162.8,36.4c-0.9-0.6-1.7-1.3-2.3-1.9c-0.4,0.4-1,1-1.6,1.8c-0.1,0.2-0.2,0.3-0.4,0.5
	c-1.7,2.2-3.6,5.3-3.6,7.6c0,1.3,0.6,2.3,2.1,2.8c0.1,0,0.3,0.1,0.4,0.1C159.8,47.2,162.4,40.6,162.8,36.4z M163,33.3
	c0-1-0.1-1.8-0.3-2.4C162.2,31.3,162.3,32.3,163,33.3z"/>
</svg>
